<?xml version="1.0" encoding="utf-8"?>
<!-- Generator: Adobe Illustrator 29.6.1, SVG Export Plug-In . SVG Version: 9.03 Build 0)  -->
<svg version="1.1" id="Layer_1" xmlns="http://www.w3.org/2000/svg" xmlns:xlink="http://www.w3.org/1999/xlink" x="0px" y="0px"
	 viewBox="0 0 947 947" style="enable-background:new 0 0 947 947;" xml:space="preserve">
<style type="text/css">
	.st0{fill:#E3F0DA;}
	.st1{fill:none;}
</style>
<path class="st0" d="M658,188c0.25-7.07-1.9-20.45,7.56-21.94l67.88,0c2.74-0.52,7.56,5.78,7.56,7.44V188
	c15.36,0.13,29.19,1,42.67,8.83c18.05,10.49,29.85,29.81,31.32,50.68l0.1,302.06c-3.14,2.67-0.68,3.14-1.04,6.88
	c-2.27,23.08-25.2,45.63-47.8,49.29c-196.26,2.1-393.22,2.08-589.49,0c-26.61-5.04-46.17-27.5-48.62-54.38l-0.18-303.92
	c2.31-35.47,32.63-59.02,67.05-59.45c0.89-10.38-2.84-22.19,0.2-32.3c0.88-2.94,4.67-3.52,7.25-3.75
	c23.82-2.16,50.87,1.71,75.05,0.05c3.87-0.55,10.5,4.93,10.5,8.5V188h57.5c0.5,0,3.67-3.77,4.25-4.75
	c14.29-24.39,14.58-73.09,51.72-76.28c50.89,2.84,105.65-3.65,156.08-0.01c38.65,2.8,38.49,50.3,53.26,75.74
	c0.61,1.05,4.15,5.3,4.7,5.3H658z M788,294v-52.5c0-0.79-4.76-9.77-5.77-11.23c-7.29-10.57-18.27-14.45-30.69-15.31
	c-43.33-3.01-90.97,3.47-134.08,0.08c-37.48-2.95-35.72-47.43-50.26-72.74c-1.79-3.11-6.39-7.35-9.93-8.07l-149.81-0.27
	c-5.92,0.35-10.85,3.13-13.9,8.1c-14.6,23.85-13.7,69.91-49.03,72.97c-48.79,4.24-103.67-3.26-153.08-0.08
	C173.24,216.13,154,226.7,154,247.5v45c0,0.11,1.39,1.5,1.5,1.5H298c-2.43,6.19-6.14,18.28-10.1,23.4c-0.69,0.88-1.1,1.6-2.39,1.61
	L154,320v229.5c0,7.42,7.78,15.56,9.13,22.37c5.69,0.69,13.41,8.13,19.37,8.13H398c-3.1-3.04-6.58-4.42-9.51-7.99
	c-5.69-6.94-5.43-12.44-14.16-18.84c-13.54-9.91-24.95-2.32-36.8-12.2c-12.3-10.25-5.75-20-11.65-32.35
	c-7.81-16.34-25.43-13.88-31.1-28.9c-4.99-13.22,3.87-21.1,1.96-34.96c-2-14.56-11.44-16.25-15.61-26.39
	c-8.41-20.48,9.77-24.8,11.78-39.95c2.08-15.68-8.29-20.68-5.46-35.46c3.02-15.79,18.27-14.49,24.42-26.58
	c7-13.76,0.93-21.32,4.41-32.59c5.9-19.13,24.04-12.74,36.73-23.27c11.76-9.76,8.1-25.08,20.67-31.33
	c13.8-6.86,22.24,3.33,37.58-2.42c13.94-5.22,11.67-13.9,20.82-19.18c18.53-10.7,25.87,6.96,42.38,7.47c4.5,0.14,8.88-0.43,13.09-2
	c8.37-3.12,10.21-9.44,21.64-8.83c18.18,0.97,16.44,16.86,31.55,22.54c16.08,6.04,29.53-6,42.75,6.25
	c8.59,7.95,4.66,19.23,17.49,29.51c11.06,8.86,22.45,4.13,30.99,14.01c9.32,10.77,3.75,16.06,5.11,26.9
	c0.62,4.91,5.08,14.88,8.37,18.62c6.26,7.11,15.62,6.83,19.83,18.17c4.79,12.91-2.37,16.6-4.05,26.53
	c-0.58,3.44-0.62,10.21-0.15,13.67c1.36,10.01,11.54,14.23,12.8,25.19c2.25,19.61-13,20.76-16.45,36.33
	c-3.16,14.29,3.44,17.91,3.64,28.56c0.36,19.04-14.76,19.72-25.99,27.08c-3.83,2.51-9.06,15.49-9.85,20.15
	c-1.78,10.43,0.78,15.83-9.22,23.78c-10.6,8.43-21.55,2.94-33.55,9.45c-10.9,5.92-14.07,13.91-19.94,24.06L555,580h205.5
	c10.48,0,27.5-17.06,27.5-27.5V319H667.5L655,294H788z M263,179h-44v9h44V179z M442.73,219.17c-10.62,2.2-7.75,19.33,4.56,15.62
	C456.32,232.07,452.9,217.07,442.73,219.17z M505.73,219.17c-10.45,2.17-6.94,19.29,5.32,15.37
	C520.36,231.58,515.4,217.17,505.73,219.17z M472.78,239.28c-10.54,1.29-14.74,9.14-22.52,10.48c-12.67,2.18-17.61-5.59-32.25-0.25
	c-13.75,5.02-11.45,13.51-20.87,19.13c-9.75,5.82-17.5,1.15-28.62,10.38c-12.07,10-6.21,22.26-15.58,29.42
	c-8.68,6.63-15.83,6.8-20.17,19.83c-3.48,10.45,1.8,16.5-1.06,25.95c-3.26,10.78-13.58,12.23-14.7,25.29
	c-1.14,13.26,7.79,18.64,8.07,28.99c0.33,12.5-10.26,15.57-4.55,32.47c3.48,10.31,13.69,12.6,16.95,22.05
	c3.49,10.1-1,17.78,6.08,27.92c7.78,11.14,17.88,7.85,25.98,16.02c7.87,7.95,4.98,17.85,18.52,25.48
	c10.57,5.95,16.85,0.38,27.21,3.79c12.54,4.13,12.39,16.45,28.51,18.49c17.48,2.21,15.87-3.88,27.16-6.27
	c16.24-3.45,20.06,7.78,35.54,6.54c19.62-1.58,18.48-13.84,31.54-18.46c11.72-4.14,18.84,3.13,30.31-4.69
	c12.29-8.38,9.14-19.92,18.64-27.36c7.28-5.7,14.69-3.28,21.43-11.57c7.89-9.7,5.44-14.52,6.7-25.3
	c1.72-14.7,17.03-15.96,19.65-32.35c2.08-13.03-6.03-16.36-5.84-26.76c0.24-13.05,12.72-16.21,6.55-34.48
	c-2.84-8.4-10.66-11.05-13.19-18.81c-3.57-10.97,4.41-16.42-2.77-30.23c-6.58-12.66-15.49-10.95-21.51-18.49
	c-7.8-9.76-1.97-18.07-15.53-28.47c-9.69-7.44-16.98-3.96-25.81-8.19c-9.4-4.5-10.45-15.73-23.41-20.59
	c-14.08-5.29-16.73,2.29-28.68,0.67C492.4,248.25,491.29,237.02,472.78,239.28z M384.65,241.3c-8.69,0.47-10.61,14.1-2.12,15.7
	C396.18,259.56,395.46,240.71,384.65,241.3z M568.31,257.36c1.73-1.01,3.45-0.65,5.15-2.4c7.34-7.52-5.74-18.57-12.32-10.32
	c-5.24,6.58-0.66,9.61,4.51,12.75c0.45,0.27,0.29,1.48,0.39,1.55C568.09,260.28,567.99,257.55,568.31,257.36z M335.72,283.19
	c-6.02,1.8-7.84,12.55-1.01,14.59C349.61,302.24,348.87,279.25,335.72,283.19z M610.29,285.3c-7.11,5.73,1.1,19.43,9.69,13.17
	C628.66,292.14,618.14,278.98,610.29,285.3z M307.73,340.2c-9.21,2-6.85,17.78,3.54,15.63C321.22,353.77,319.25,337.69,307.73,340.2
	z M641.74,340.18c-9.38,1.9-5.97,17.97,4.54,15.62C656.29,353.56,651.73,338.15,641.74,340.18z M300.74,401.15
	c-9.59,1.77-8.58,16.87,1.67,15.84C312.24,416.01,310.68,399.31,300.74,401.15z M646.32,414.69c7.64,8.33,20.39-5.37,9.24-11.74
	C647.37,398.28,640.69,408.55,646.32,414.69z M314.73,463.17c-8.46,1.75-8.62,14.5-0.16,15.78
	C327.65,480.93,326.53,460.73,314.73,463.17z M635.71,463.2c-8.97,2.71-5.43,17.27,3.55,15.65
	C650.15,476.88,645.64,460.2,635.71,463.2z M350.74,515.18c-8.74,1.79-7.23,16.84,2.67,15.82
	C364.23,529.88,361.79,512.92,350.74,515.18z M599.72,515.2c-9.85,2.2-6.16,18.82,4.56,15.6
	C613.3,528.11,610.22,512.86,599.72,515.2z M406.76,550.17c-10.3,1.69-8.83,17.28,2.65,15.81
	C420.21,564.59,416.08,548.64,406.76,550.17z M539.32,552.32c-7.15,7.83,4.12,18.07,11.62,12.12
	C559.99,557.27,546.8,544.14,539.32,552.32z M475.73,563.17c-10.16,2.11-8.54,18.39,3.56,15.61
	C490.1,576.31,485.43,561.16,475.73,563.17z M438.5,579c-4.44-0.6-9.92,0.43-14.5,0c-0.58,2.59,1.15,2.08,2.95,2.5
	c7.38,1.71,15.27,0.98,22.53,3.51c1.96-1.5,0.35-1.61-0.77-2.27C446.95,581.71,440.36,579.25,438.5,579z M533,580.01
	c-2.87-2.72-18.07-0.29-22.26,1.23c-1.27,0.46-4.52,1.3-4.73,2.75l25.52-1.98C533.24,582.73,533.47,580.46,533,580.01z"/>
<path class="st1" d="M788,294H655l12.5,25H788v233.5c0,10.44-17.02,27.5-27.5,27.5H555l7.54-4.96c5.87-10.16,9.04-18.14,19.94-24.06
	c11.99-6.51,22.95-1.02,33.55-9.45c10-7.95,7.44-13.35,9.22-23.78c0.79-4.66,6.02-17.64,9.85-20.15
	c11.23-7.36,26.35-8.04,25.99-27.08c-0.2-10.65-6.8-14.28-3.64-28.56c3.44-15.57,18.7-16.72,16.45-36.33
	c-1.26-10.96-11.43-15.18-12.8-25.19c-0.47-3.46-0.43-10.23,0.15-13.67c1.68-9.93,8.85-13.62,4.05-26.53
	c-4.21-11.34-13.57-11.06-19.83-18.17c-3.29-3.74-7.76-13.71-8.37-18.62c-1.36-10.84,4.21-16.13-5.11-26.9
	c-8.54-9.88-19.93-5.15-30.99-14.01c-12.83-10.27-8.91-21.56-17.49-29.51c-13.23-12.25-26.67-0.2-42.75-6.25
	c-15.11-5.68-13.36-21.57-31.55-22.54c-11.43-0.61-13.27,5.71-21.64,8.83c-4.22,1.57-8.6,2.14-13.09,2
	c-16.51-0.51-23.85-18.18-42.38-7.47c-9.14,5.28-6.88,13.96-20.82,19.18c-15.33,5.75-23.78-4.44-37.58,2.42
	c-12.57,6.25-8.91,21.57-20.67,31.33c-12.69,10.53-30.83,4.14-36.73,23.27c-3.47,11.27,2.59,18.83-4.41,32.59
	c-6.15,12.09-21.41,10.79-24.42,26.58c-2.82,14.78,7.54,19.78,5.46,35.46c-2.01,15.16-20.19,19.47-11.78,39.95
	c4.17,10.15,13.61,11.84,15.61,26.39c1.9,13.86-6.95,21.74-1.96,34.96c5.67,15.03,23.29,12.56,31.1,28.9
	c5.9,12.35-0.65,22.1,11.65,32.35c11.85,9.87,23.27,2.29,36.8,12.2c8.73,6.39,8.47,11.9,14.16,18.84c2.93,3.58,6.41,4.95,9.51,7.99
	H182.5c-5.96,0-13.69-7.44-19.37-8.13c-1.35-6.81-9.13-14.96-9.13-22.37V320l131.5-1c1.29,0,1.71-0.72,2.39-1.61
	c3.97-5.12,7.67-17.2,10.1-23.4H155.5c-0.11,0-1.5-1.39-1.5-1.5v-45c0-20.8,19.24-31.37,37.46-32.54
	c49.41-3.19,104.29,4.31,153.08,0.08c35.32-3.07,34.42-49.12,49.03-72.97c3.04-4.97,7.97-7.76,13.9-8.1l149.81,0.27
	c3.54,0.72,8.14,4.96,9.93,8.07c14.55,25.3,12.79,69.79,50.26,72.74c43.11,3.39,90.75-3.09,134.08-0.08
	c12.42,0.86,23.4,4.74,30.69,15.31c1.01,1.46,5.77,10.44,5.77,11.23V294z"/>
<path class="st1" d="M472.78,239.28c18.51-2.26,19.62,8.97,31.8,10.63c11.95,1.63,14.6-5.96,28.68-0.67
	c12.96,4.87,14,16.09,23.41,20.59c8.83,4.23,16.12,0.75,25.81,8.19c13.55,10.4,7.72,18.71,15.53,28.47
	c6.03,7.54,14.93,5.83,21.51,18.49c7.18,13.82-0.8,19.26,2.77,30.23c2.52,7.76,10.35,10.41,13.19,18.81
	c6.17,18.27-6.31,21.43-6.55,34.48c-0.19,10.4,7.92,13.73,5.84,26.76c-2.62,16.39-17.93,17.65-19.65,32.35
	c-1.26,10.78,1.19,15.6-6.7,25.3c-6.74,8.29-14.15,5.87-21.43,11.57c-9.51,7.44-6.35,18.98-18.64,27.36
	c-11.47,7.82-18.6,0.55-30.31,4.69c-13.05,4.62-11.92,16.88-31.54,18.46c-15.48,1.24-19.3-9.99-35.54-6.54
	c-11.29,2.4-9.69,8.48-27.16,6.27c-16.12-2.04-15.97-14.36-28.51-18.49c-10.36-3.41-16.64,2.16-27.21-3.79
	c-13.55-7.62-10.65-17.53-18.52-25.48c-8.1-8.17-18.2-4.88-25.98-16.02c-7.08-10.14-2.6-17.81-6.08-27.92
	c-3.26-9.45-13.47-11.74-16.95-22.05c-5.71-16.9,4.89-19.97,4.55-32.47c-0.27-10.35-9.2-15.74-8.07-28.99
	c1.12-13.06,11.44-14.51,14.7-25.29c2.86-9.44-2.42-15.5,1.06-25.95c4.34-13.03,11.49-13.2,20.17-19.83
	c9.37-7.16,3.51-19.42,15.58-29.42c11.13-9.23,18.87-4.56,28.62-10.38c9.42-5.62,7.12-14.11,20.87-19.13
	c14.64-5.34,19.58,2.43,32.25,0.25C458.04,248.42,462.24,240.57,472.78,239.28z M436,325h18.5c5.24,0,7.98-11.69,0.79-13.79
	c-8.18,1.06-41.93-2.48-46.86,0.72c-3.13,2.03-3.92,6.89-1.87,10.01c3.55,5.41,10.71,1.38,14.03,3.97
	c0.93,0.73,9.29,20.16,9.4,21.67c0.09,1.34-0.4,2.04-0.76,3.13c-0.56,1.73-10.81,21.45-11.73,22.31c-2.05,1.92-9.75-1.57-13.12-1.9
	c-25.41-2.48-53.26,17.69-56.27,43.48c-7.54,64.64,78.03,85.31,100.65,27.65c0.9-2.28,2.84-11.78,3.37-12.12
	c5.7-3.64,16.2,10.67,25.78,2.28c4.15-3.63,3.22-9.34,5.02-13.98c12.48-13.85,25.78-26.92,38.62-40.42
	c1.06-1.11,1.32-2.92,1.46-3.02c1.65-1.16,3.65,2,2.87,4.35c-0.25,0.74-9.57,8.42-11.4,10.64c-37.41,45.4,18.86,110.42,69.24,77.24
	c43.6-28.72,21.59-99.67-33.21-96.21c-2.77,0.17-10.48,2.97-12.01,0.99c-0.53-0.68-7.16-15.44-6.5-16
	c22.36,1.26,24.55-35.5,2.5-38.01c-4.05-0.46-24.75-0.68-27.79,0.21c-7.03,2.05-5.42,14.79,1.79,14.79h24
	c1.55,0,4.06,7.83-3.07,8.93l-84.95,0.08L442.5,341L436,325z"/>
<rect x="219" y="179" class="st1" width="44" height="9"/>
<path class="st1" d="M539.32,552.32c7.48-8.18,20.67,4.95,11.62,12.12C543.44,570.38,532.17,560.14,539.32,552.32z"/>
<path class="st1" d="M442.73,219.17c10.17-2.11,13.59,12.9,4.56,15.62C434.99,238.51,432.11,221.37,442.73,219.17z"/>
<path class="st1" d="M505.73,219.17c9.67-2.01,14.62,12.41,5.32,15.37C498.79,238.46,495.29,221.34,505.73,219.17z"/>
<path class="st1" d="M475.73,563.17c9.7-2.01,14.37,13.14,3.56,15.61C467.2,581.56,465.58,565.28,475.73,563.17z"/>
<path class="st1" d="M568.31,257.36c-0.32,0.19-0.22,2.92-2.26,1.58c-0.1-0.07,0.06-1.28-0.39-1.55c-5.17-3.14-9.76-6.17-4.51-12.75
	c6.57-8.25,19.66,2.8,12.32,10.32C571.76,256.71,570.04,256.35,568.31,257.36z"/>
<path class="st1" d="M314.73,463.17c11.8-2.44,12.92,17.75-0.16,15.78C306.12,477.67,306.27,464.92,314.73,463.17z"/>
<path class="st1" d="M406.76,550.17c9.32-1.53,13.45,14.42,2.65,15.81C397.93,567.45,396.46,551.86,406.76,550.17z"/>
<path class="st1" d="M307.73,340.2c11.53-2.51,13.5,13.57,3.54,15.63C300.87,357.98,298.52,342.2,307.73,340.2z"/>
<path class="st1" d="M599.72,515.2c10.5-2.34,13.58,12.9,4.56,15.6C593.56,534.02,589.87,517.4,599.72,515.2z"/>
<path class="st1" d="M384.65,241.3c10.81-0.59,11.53,18.27-2.12,15.7C374.04,255.4,375.96,241.77,384.65,241.3z"/>
<path class="st1" d="M641.74,340.18c9.99-2.02,14.55,13.38,4.54,15.62C635.77,358.14,632.36,342.08,641.74,340.18z"/>
<path class="st1" d="M350.74,515.18c11.05-2.26,13.49,14.71,2.67,15.82C343.5,532.01,341.99,516.96,350.74,515.18z"/>
<path class="st1" d="M610.29,285.3c7.85-6.32,18.37,6.84,9.69,13.17C611.39,304.73,603.17,291.03,610.29,285.3z"/>
<path class="st1" d="M335.72,283.19c13.16-3.94,13.9,19.05-1.01,14.59C327.87,295.75,329.69,285,335.72,283.19z"/>
<path class="st1" d="M635.71,463.2c9.93-3,14.44,13.68,3.55,15.65C630.29,480.47,626.75,465.91,635.71,463.2z"/>
<path class="st1" d="M300.74,401.15c9.95-1.84,11.5,14.86,1.67,15.84C292.16,418.02,291.15,402.93,300.74,401.15z"/>
<path class="st1" d="M646.32,414.69c-5.63-6.14,1.05-16.41,9.24-11.74C666.71,409.31,653.96,423.02,646.32,414.69z"/>
<path class="st1" d="M533,580.01c0.47,0.44,0.24,2.72-1.48,1.99l-25.52,1.98c0.21-1.45,3.46-2.29,4.73-2.75
	C514.93,579.72,530.13,577.29,533,580.01z"/>
<path class="st1" d="M438.5,579c1.86,0.25,8.45,2.71,10.22,3.75c1.12,0.66,2.73,0.77,0.77,2.27c-7.26-2.54-15.15-1.81-22.53-3.51
	c-1.8-0.42-3.53,0.09-2.95-2.5C428.58,579.43,434.06,578.4,438.5,579z"/>
<path class="st0" d="M672,658c0.17,0.11,0.79,2.5,1.75,3.73c12.23,15.54,22.71,32.57,34.83,48.19c0.42,0.55,4.37,4.78,2.42,1.58v-52
	c0-1.96,14.91-2.73,15.86,0.14c-1.29,9.46,2.53,78.62-0.8,80.92c-1.2,0.83-12.63,0.79-14.06-0.07c-12.9-18.11-25.57-36.63-40-53.5
	v54c-2.44-0.33-15,1.06-15-1.5V658C659.63,658.57,670.76,657.22,672,658z"/>
<path class="st0" d="M616,658h16v55.5c0,14.8-13.15,27.28-27.46,28.54c-55.25,4.83-39.2-45.38-41.54-81.54
	c-0.03-4.21,15.78-2.7,16.57-1.56c1.9,2.74-0.57,46.44,0.41,54.59c1.7,14.13,22.87,18.21,31.45,8.41c1.1-1.26,4.57-9.1,4.57-10.43
	V658z"/>
<path class="st0" d="M769,658v33l6.52-5.98c3.51-2.83,21.21-27.02,22.98-27.02h16c0.31,0,1.87,1.64,1.5,2.49l-30.01,36.03L819,741
	h-18.5c-2.23,0-22.89-31.92-26.63-35.86c-1.33-1.05-4.87,1.54-4.87,2.36V741h-14.5c-0.11,0-1.5-1.39-1.5-1.5V658H769z"/>
<path class="st0" d="M386,712v29h-14.5c-0.11,0-1.5-1.39-1.5-1.5v-80c0-0.11,1.39-1.5,1.5-1.5h38c1.03,0,8.67,3.99,10,5
	c11.83,9.05,12.59,30.82,2.05,41.04C412.96,712.36,397.19,711.66,386,712z M386,697h18.5c0.93,0,5.29-3.89,5.92-5.08
	c3.58-6.76,0.99-19.92-7.92-19.92H386V697z"/>
<path class="st0" d="M188,658v14h-37v21h30.5c2.26,0,2.26,15,0,15H151v33h-16v-83H188z"/>
<path class="st0" d="M541,672h-35v21h30c1.62,4.83,0.87,9.98,1,15h-31v33h-15.5c-1.1,0-1.43-2.44-1.55-3.45
	c-0.73-6.18-0.05-15.51,0.01-22.09c0.11-12.28,0.79-24.69,1.08-36.92c0.17-6.83-0.21-13.72-0.04-20.54h49.5
	C542.02,658,540.7,669.84,541,672z"/>
<path class="st0" d="M269,658v68h35.5c2.6,0,0.4,5.95,0.4,7.5s2.2,7.5-0.4,7.5H253v-83H269z"/>
<path class="st0" d="M344,658v81.5c0,0.11-1.39,1.5-1.5,1.5H327v-83H344z"/>
<path class="st0" d="M210.64,658.14c1.86-0.62,14.03-0.49,14.92,0.8v81.13c-0.79,1.13-16.6,2.65-16.57-1.56l0.44-79.57
	C209.72,658.49,210.15,658.3,210.64,658.14z"/>
<path class="st0" d="M304.76,788.26c30.96-3.96,35.36,42.7,6.66,46.65C279.84,839.25,276.49,791.87,304.76,788.26z M303.71,797.21
	c-4.55,1.04-9.08,7.86-9.62,12.38c-2.45,20.27,25.08,22.46,27.85,4.85C323.65,803.53,314.81,794.67,303.71,797.21z"/>
<path class="st0" d="M406.77,788.25c34.31-4.06,34.89,51.66-1.01,46.49C380.89,831.16,381.06,791.29,406.77,788.25z M409.66,796.35
	c-17.51,0.5-20.75,33.68,4.79,29.6C429,823.61,426.41,795.87,409.66,796.35z"/>
<path class="st0" d="M491.5,809c2.26,0.7,1.47,5.4,1.24,7.24c-3.56,28.84-46.02,22.36-43.78-6.79
	c1.62-21.11,27.69-28.32,40.96-12.81c-3.82,8.37-7.28,2.59-11.91,0.85c-8.69-3.27-16.83,0.43-19.78,9.24
	c-6.5,19.4,20.87,28.95,25.76,9.28l-12,0L472,809C476.97,809.95,487.34,807.71,491.5,809z"/>
<path class="st0" d="M675,789v16.5c0,0.11,1.39,1.5,1.5,1.5H694v-16.5c0-2.08,7.33-1.5,9-1.5v45h-9v-19h-19v19
	c-1.57-0.3-7.42,0.46-7.95-0.05c-1.58-1.54-1.88-42.2-0.61-44.01C667.67,788.17,672.78,789.26,675,789z"/>
<path class="st0" d="M532.5,789c9.92,1.77,14.51,19.23,7.03,26.03c-1.2,1.1-4.55,1.93-4.56,2.5c-0.01,2.58,11.92,15.8,11.03,16.46
	c-2.95-0.35-7.38,0.81-10.01-0.48c-4.3-2.11-8.09-16.99-15.99-14.51c-0.71,9.01,3.92,17.19-9,15v-45
	C517.48,789.8,526.37,787.91,532.5,789z M519,796v16c10.7,0.35,17.24,0.49,14.75-12.31C532.61,793.81,523.51,796.61,519,796z"/>
<path class="st0" d="M240,789v16.5c0,0.11,1.39,1.5,1.5,1.5h16c0.11,0,1.5-1.39,1.5-1.5v-15c0-2.08,7.33-1.5,9-1.5v45h-9v-19h-18
	l-0.99,19.01l-8.01,0l-0.86-43.37C232.05,787.85,237.55,789.29,240,789z"/>
<path class="st0" d="M584.84,789.17L601,834c-1.79-0.35-8.13,0.57-8.9-0.1c-0.62-0.54-1.53-10.12-4.59-10
	c-4.8,2.17-14.14-0.79-16.95,3.16c-4.02,5.65,0.45,8.44-11.56,6.94l16.54-42.95C577.46,787.99,581.73,788.89,584.84,789.17z
	 M581.93,802.06c-0.34-0.22-2.38-0.21-2.81,0.06c-0.71,0.44-5.72,15.3-5.11,15.87l12.99,0C586.57,815.8,582.63,802.51,581.93,802.06
	z"/>
<path class="st0" d="M192,834h-9v-45h20.5c0.39,0,4.71,2.04,5.45,2.55c10.04,6.82,7.53,24.61-5.54,26.37
	c-2.24,0.3-11.41-0.73-11.41,1.59V834z M192,797v14C210.46,813.97,210.9,793.42,192,797z"/>
<path class="st0" d="M627,834h-9v-45h20.5c0.61,0,5.18,2.3,6.03,2.97c9.87,7.76,5.64,24.53-7.03,26.03
	c-1.97,0.23-10.5-0.83-10.5,1.5V834z M627.64,796.14c-2.41,0.79-2.19,13.51-1.2,14.92c1.48,2.11,11.31,0.63,13.07-1.06
	c2.31-2.22,2.05-9.54-0.04-11.97C637.45,795.68,630.31,795.27,627.64,796.14z"/>
<path class="st0" d="M734,815.5l-14.99-26.49c2.71,0.41,7.79-0.87,10.01,0.48c1.62,0.99,8.45,16.51,9.5,16.52
	c3.36,0.04,8.18-15.13,10.48-16.52c2.1-1.28,6.49-0.14,9.01-0.48c1.22,1.08-14.99,25.56-14.99,27.49V834h-9V815.5z"/>
<path class="st0" d="M374.5,789c2.38,0.74,1.46,7.17,0.35,7.86c-1.52,0.95-9.34-0.39-11.85,0.14v37l-8.01,0.01l-0.99-37.01
	c-7.94-0.22-13.65,2.66-12.01-7.99H374.5z"/>
<path class="st1" d="M386,697v-25h16.5c8.91,0,11.5,13.16,7.92,19.92c-0.63,1.19-4.99,5.08-5.92,5.08H386z"/>
<path class="st1" d="M303.71,797.21c11.11-2.54,19.94,6.32,18.23,17.23c-2.77,17.61-30.3,15.42-27.85-4.85
	C294.63,805.08,299.16,798.26,303.71,797.21z"/>
<path class="st1" d="M409.66,796.35c16.75-0.48,19.34,27.27,4.79,29.6C388.9,830.03,392.15,796.84,409.66,796.35z"/>
<path class="st1" d="M519,796c4.51,0.61,13.61-2.19,14.75,3.69c2.49,12.8-4.05,12.66-14.75,12.31V796z"/>
<path class="st1" d="M581.93,802.06c0.7,0.45,4.65,13.73,5.07,15.93l-12.99,0c-0.61-0.57,4.41-15.43,5.11-15.87
	C579.54,801.86,581.59,801.85,581.93,802.06z"/>
<path class="st1" d="M192,797c18.9-3.58,18.46,16.97,0,14V797z"/>
<path class="st1" d="M627.64,796.14c2.67-0.87,9.82-0.46,11.83,1.89c2.09,2.44,2.35,9.75,0.04,11.97
	c-1.76,1.69-11.59,3.17-13.07,1.06C625.44,809.65,625.23,796.93,627.64,796.14z"/>
<path class="st0" d="M436,325l6.5,16l1.99,1.01l84.95-0.08c7.12-1.1,4.61-8.93,3.07-8.93h-24c-7.21,0-8.82-12.74-1.79-14.79
	c3.04-0.89,23.74-0.67,27.79-0.21c22.05,2.51,19.87,39.26-2.5,38.01c-0.66,0.56,5.97,15.32,6.5,16c1.53,1.98,9.24-0.82,12.01-0.99
	c54.8-3.46,76.81,67.49,33.21,96.21c-50.37,33.18-106.65-31.84-69.24-77.24c1.83-2.22,11.15-9.9,11.4-10.64
	c0.79-2.35-1.22-5.51-2.87-4.35c-0.14,0.1-0.4,1.9-1.46,3.02c-12.84,13.5-26.14,26.57-38.62,40.42c-1.81,4.64-0.88,10.35-5.02,13.98
	c-9.58,8.39-20.08-5.92-25.78-2.28c-0.53,0.34-2.48,9.84-3.37,12.12c-22.62,57.66-108.19,36.99-100.65-27.65
	c3.01-25.79,30.86-45.97,56.27-43.48c3.37,0.33,11.07,3.82,13.12,1.9c0.92-0.86,11.17-20.58,11.73-22.31
	c0.35-1.09,0.85-1.79,0.76-3.13c-0.1-1.51-8.46-20.95-9.4-21.67c-3.32-2.59-10.48,1.44-14.03-3.97c-2.05-3.12-1.26-7.98,1.87-10.01
	c4.94-3.2,38.68,0.33,46.86-0.72c7.19,2.1,4.45,13.79-0.79,13.79H436z M449,356l20.25,49.25c1.25,3.18,4.51,3.77,6.83,1.32
	l42.44-45.58l0.42-2.36c-0.22-0.73-2.99-2.63-3.44-2.63H449z M437.99,365c-1.68-0.11-2.27-0.34-3.43,1.06
	c-1.18,1.42-6.79,12.92-6.45,14.25c10.76,8.72,18.88,17.9,22.43,31.64c0.45,1.74,0.24,5.84,0.45,6.06c0.32,0.34,6.55-0.24,8-0.01
	L437.99,365z M532.95,391.05c-7.85,1.71-14.73,14.12-16.65,21.75c-15.77,62.64,88.06,70,77.26,1.15
	c-3.48-22.16-28.75-34.88-49.56-29.95l0.48,5.03l14.34,33.72c0.46,5.04-5.45,7.93-9.38,5.31
	C542.51,416.72,538.25,403.35,532.95,391.05z M439,430h-42.5c-2.29,0-5.61-5.94-4.32-8.25l18.81-35.26
	c-18.18-7.23-40.63,4.75-47.48,22.52c-13.7,35.52,25.14,68.15,57.81,47.81C430.8,450.92,436.45,440.71,439,430z M409,418h31
	c-0.95-8.29-5.31-16.56-10.95-22.56c-2.29-2.44-5.23-6.08-7.93-2.81c-1.28,1.55-5.35,9.81-6.65,12.35
	C413.48,406.93,407.97,417,409,418z"/>
<path class="st1" d="M532.95,391.05c5.31,12.31,9.56,25.68,16.49,37.01c3.93,2.62,9.83-0.27,9.38-5.31l-14.34-33.72l-0.48-5.03
	c20.81-4.93,46.08,7.79,49.56,29.95c10.81,68.85-93.03,61.48-77.26-1.15C518.22,405.17,525.1,392.76,532.95,391.05z"/>
<path class="st1" d="M439,429.48c-2.55,10.71-8.2,20.92-17.68,26.82c-32.67,20.34-71.51-12.29-57.81-47.81
	c6.85-17.77,29.31-29.75,47.48-22.52l-18.81,35.26c-1.29,2.31,2.02,8.25,4.32,8.25H439z"/>
<path class="st1" d="M449,355.48h66.5c0.45,0,3.22,1.9,3.44,2.63l-0.42,2.36l-42.44,45.58c-2.32,2.45-5.58,1.86-6.83-1.32
	L449,355.48z"/>
<path class="st1" d="M409,417.48c-1.03-1,4.48-11.07,5.48-13.02c1.29-2.54,5.37-10.8,6.65-12.35c2.7-3.27,5.64,0.38,7.93,2.81
	c5.64,6,10,14.27,10.95,22.56H409z"/>
<path class="st1" d="M437.99,364.48l21.01,53c-1.45-0.23-7.68,0.35-8,0.01c-0.21-0.22,0-4.32-0.45-6.06
	c-3.56-13.74-11.67-22.92-22.43-31.64c-0.34-1.33,5.27-12.82,6.45-14.25C435.72,364.14,436.31,364.37,437.99,364.48z"/>
</svg>
