<?xml version="1.0" encoding="UTF-8"?>
<svg id="Layer_1" xmlns="http://www.w3.org/2000/svg" version="1.1" viewBox="0 0 1267.23 212.94">
  <!-- Generator: Adobe Illustrator 29.4.0, SVG Export Plug-In . SVG Version: 2.1.0 Build 152)  -->
  <defs>
    <style>
      .st0 {
        fill: #30302f;
      }

      .st1 {
        fill: #b7a4cf;
      }

      .st2, .st3 {
        fill: #8256a3;
      }

      .st4 {
        fill: #e3f0da;
        stroke-width: 9px;
      }

      .st4, .st5, .st3 {
        stroke: #8256a3;
        stroke-miterlimit: 10;
      }

      .st6, .st5 {
        fill: #9bce7b;
      }

      .st7 {
        fill: #303736;
      }

      .st5 {
        font-size: 55px;
        letter-spacing: .11em;
      }

      .st5, .st3 {
        font-family: Code-Pro-Bold, 'Code Pro Bold';
        font-weight: 700;
        stroke-width: 2px;
      }

      .st3 {
        font-size: 70px;
        letter-spacing: .11em;
      }
    </style>
  </defs>
  <rect class="st4" x="4.47" y="4.46" width="1258.47" height="204.18"/>
  <g>
    <g>
      <path class="st0" d="M136.75,123.43h-14.4v-56.42l-25.83-25.83h-29.35v111.75l25.83,25.83h69.58v-29.5l-25.83-25.83Z"/>
      <polygon class="st6" points="162.58 149.26 162.58 178.76 136.75 152.93 134.03 123.43 136.75 123.43 162.58 149.26"/>
      <path class="st1" d="M67.17,41.18h29.35v82.25h40.23v29.5h-69.58V41.18Z"/>
      <path class="st2" d="M91.54,46.16v82.25h40.23v19.55h-59.63V46.16h19.4M96.52,41.18h-29.35v111.75h69.58v-29.5h-40.23V41.18h0Z"/>
    </g>
    <g>
      <path class="st2" d="M176.8,42.02h13.26l45.59,41.42,45.45-41.42h13.26l26.14,26.14v111.75h-29.5l-26.14-26.14-32.42-31.08v57.22h-29.5l-26.14-26.14V42.02Z"/>
      <path class="st1" d="M176.8,153.78V42.02h13.26l45.59,41.42,45.45-41.42h13.26v111.75l26.14,26.14h-29.5l-58.56-57.22v57.22l-26.14-26.14h-29.5Z"/>
      <path class="st6" d="M176.8,153.78V42.02h13.26l45.59,41.42,45.45-41.42h13.26v111.75h-29.5v-57.37l-29.2,26.67-29.35-26.52v57.22l26.14,26.14h-29.5l-26.14-26.14Z"/>
      <path class="st0" d="M235.66,83.45l45.45-41.42h13.26v111.75h-29.5v-57.37l-29.2,26.67-29.35-26.52v57.22h-29.5V42.02h13.26l45.59,41.42Z"/>
    </g>
    <g>
      <path class="st0" d="M433.45,138.46c-1.15-1.09-2.31-2.17-3.47-3.26-4.61-4.32-9.21-8.64-13.81-12.97-1.7-1.59-3.39-3.18-5.08-4.77-4.97,4.88-12.01,7.62-20.18,7.62-.08,0-.15,0-.23,0,0-.07,0-.14,0-.21,0-11.91,6.94-21.32,17.52-25.08,3.24-1.15,6.83-1.78,10.66-1.78,7.22,0,13.57,2.15,18.38,5.93.63.49,1.23,1.01,1.8,1.55l22.1-21.21c-9.39-8.94-18.69-17.98-28.17-26.84-7.75-7.25-17.42-12.45-28-14.86-4.6-1.05-9.33-1.57-14.05-1.57-33.15,0-60.05,25.64-60.05,57.22,0,10.57,3.11,21.06,8.95,30.05,1.96,3.01,4.24,5.83,6.7,8.53,5.61,6.14,12.19,11.63,18.14,17.3,7.69,7.32,14.96,15.29,24.5,20.48,9,4.9,19.28,7.47,29.63,7.49h.08c11.15,0,22.19-3.03,31.66-8.65,2.29-1.36,4.49-2.87,6.57-4.5,1-.78,1.98-1.59,2.91-2.44.91-.83,1.19-1.22.97-1.67-.16-.34-23.79-22.83-27.52-26.36Z"/>
      <path class="st6" d="M418.78,182.08c-10.36-.02-20.63-2.59-29.63-7.49-9.54-5.19-16.82-13.16-24.5-20.48-5.95-5.67-12.53-11.16-18.14-17.3l12.34-11.84,59.94,57.11Z"/>
      <path class="st6" d="M437.24,103.94c-4.81-3.78-11.15-5.93-18.38-5.93-3.83,0-7.42.62-10.66,1.78-4.58-3.94-8.8-8.3-13.16-12.45-5.95-5.67-12.53-11.16-18.14-17.3l12.34-11.84,48,45.73Z"/>
      <path class="st1" d="M411.09,78.86c-4.96-4.73-12.01-7.48-20.18-7.48-16.33,0-28.18,11.29-28.18,26.85s11.85,26.85,28.18,26.85c8.17,0,15.21-2.75,20.18-7.63l22.42,21.06c-10.89,10.38-25.94,16.94-42.6,16.94-33.15,0-60.05-25.63-60.05-57.21s26.9-57.21,60.05-57.21c16.49,0,31.39,6.26,42.28,16.63l-22.1,21.21Z"/>
      <path class="st2" d="M390.91,46.22c12.71,0,24.74,4.1,34.39,11.63l-14.58,13.99c-5.55-3.67-12.42-5.65-19.82-5.65-19.49,0-33.64,13.48-33.64,32.05s14.15,32.05,33.64,32.05c7.48,0,14.37-2.03,19.91-5.78l14.76,13.87c-9.82,7.7-21.94,11.89-34.67,11.89-30.11,0-54.6-23.34-54.6-52.02s24.49-52.02,54.6-52.02M390.91,41.03c-33.15,0-60.05,25.63-60.05,57.21s26.9,57.21,60.05,57.21c16.65,0,31.71-6.56,42.6-16.94l-22.42-21.06c-4.96,4.88-12.01,7.63-20.18,7.63-16.33,0-28.18-11.29-28.18-26.85s11.85-26.85,28.18-26.85c8.17,0,15.21,2.75,20.18,7.48l22.1-21.21c-10.89-10.38-25.78-16.63-42.28-16.63h0Z"/>
    </g>
    <g>
      <path class="st7" d="M464.86,42.07h35.66l22.91,22.83,15.87-22.83h35.66l26.27,26.27-37.15,53.34,40.86,58.1h-35.66l-26.27-26.27-.71-.9-19.23,27.17h-35.66l-26.27-26.27,40.86-58.1-37.15-53.34Z"/>
      <path class="st1" d="M564.08,121.68l1.3-1.86-25.89-26.82,5.05-7.25,25.93,26.76,6.15-8.83-25.98-26.69,5.22-7.5,25.96,26.72,6.08-8.74-26-26.65,6.78-9.73c8.69,8.86,17.37,17.72,26.04,26.6l6.5-9.34-17.51-17.51c-2.91-2.87-5.89-5.81-8.81-8.69l.05-.07h-35.66l-9.43,13.56h0l-5.4,7.77-4.48,6.45-19.47-27.79h-35.66l37.15,53.34-6.25,8.89h0l-3.37,4.79-8.88,12.63-5.44,7.74h0l-16.92,24.05h10.2l25.56,26.27h13.97l-25.64-26.27h11.57l1.97-2.78,25.97,26.68,5.94-8.4-25.93-26.73,5.63-7.94,25.8,26.9,6.11-8.64.71.9,11.31,11.31-10.95-11.31h12.1c9.32,9.7,18.01,18.75,25.23,26.27h14.95c-8.44-8.76-16.88-17.51-25.32-26.27h8.34l-10.98-15.61,29.35,30.65-32.97-46.87ZM521.54,130.95l-5.04-5.21,3.49-4.92,22.06,31.31-20.51-21.19Z"/>
      <path class="st2" d="M574.96,42.07l-37.15,53.34,40.86,58.1h-35.66l-23.03-32.69-23.18,32.69h-35.66l40.86-58.1-37.15-53.34h35.66l19.47,27.79,19.32-27.79h35.66Z"/>
    </g>
    <text/>
  </g>
  <text class="st5" transform="translate(652.16 99.49)"><tspan x="0" y="0">LOWER MAINLAND</tspan></text>
  <text class="st3" transform="translate(654.38 164.49) scale(1 1.05)"><tspan x="0" y="0">CYCLOCROSS</tspan></text>
</svg>