<?xml version="1.0" encoding="utf-8"?>
<!-- Generator: Adobe Illustrator 29.6.1, SVG Export Plug-In . SVG Version: 9.03 Build 0)  -->
<svg version="1.1" id="Layer_1" xmlns="http://www.w3.org/2000/svg" xmlns:xlink="http://www.w3.org/1999/xlink" x="0px" y="0px"
	 viewBox="0 0 876.43 149.19" style="enable-background:new 0 0 876.43 149.19;" xml:space="preserve">
<style type="text/css">
	.st0{fill:#E3F0DA;stroke:#8256A3;stroke-width:9;stroke-miterlimit:10;}
	.st1{fill:#30302F;}
	.st2{fill:#9BCE7B;}
	.st3{fill:#B7A4CF;}
	.st4{fill:#8256A3;}
	.st5{fill:#303736;}
	.st6{fill:#9BCE7B;stroke:#8256A3;stroke-width:2;stroke-miterlimit:10;}
	.st7{fill:#8256A3;stroke:#8256A3;stroke-width:2;stroke-miterlimit:10;}
</style>
<rect x="4.46" y="4.11" class="st0" width="867.62" height="140.77"/>
<g>
	<g>
		<path class="st1" d="M95.66,86.12h-9.93v-38.9l-17.81-17.8H47.69v77.05l17.8,17.8h47.97v-20.34L95.66,86.12z"/>
		<polygon class="st2" points="113.47,103.93 113.47,124.27 95.66,106.47 93.79,86.12 95.66,86.12 		"/>
		<path class="st3" d="M47.69,29.42h20.24v56.71h27.74v20.34H47.69V29.42z"/>
		<path class="st4" d="M64.49,32.85v53.27v3.43h3.43h24.31v13.48H51.12V32.85H64.49 M67.93,29.42H47.69v77.04h47.97V86.13H67.93
			V29.42L67.93,29.42z"/>
	</g>
	<g>
		<path class="st4" d="M123.27,30h9.14l31.43,28.56L195.18,30h9.14l18.02,18.02v77.04h-20.34l-18.02-18.02l-22.35-21.43v39.45
			h-20.34l-18.02-18.02V30z"/>
		<path class="st3" d="M123.27,107.05V30h9.14l31.43,28.56L195.18,30h9.14v77.04l18.02,18.02h-20.34l-40.37-39.45v39.45
			l-18.02-18.02H123.27z"/>
		<path class="st2" d="M123.27,107.05V30h9.14l31.43,28.56L195.18,30h9.14v77.04h-20.34V67.5l-20.13,18.39L143.61,67.6v39.45
			l18.02,18.02h-20.34L123.27,107.05z"/>
		<path class="st1" d="M163.85,58.56L195.18,30h9.14v77.04h-20.34V67.5l-20.13,18.39L143.61,67.6v39.45h-20.34V30h9.14L163.85,58.56
			z"/>
	</g>
	<g>
		<path class="st1" d="M300.21,96.49c-0.79-0.75-1.59-1.5-2.39-2.25c-3.18-2.98-6.35-5.96-9.52-8.94c-1.17-1.1-2.34-2.19-3.5-3.29
			c-3.42,3.37-8.28,5.26-13.91,5.26c-0.06,0-0.11,0-0.16,0c0-0.05,0-0.1,0-0.15c0-8.21,4.78-14.7,12.08-17.29
			c2.24-0.79,4.71-1.22,7.35-1.22c4.98,0,9.35,1.48,12.67,4.09c0.43,0.34,0.85,0.69,1.24,1.07l15.24-14.62
			c-6.47-6.17-12.88-12.39-19.42-18.5c-5.34-5-12.01-8.59-19.31-10.24c-3.17-0.72-6.43-1.08-9.69-1.08
			c-22.85,0-41.4,17.67-41.4,39.45c0,7.29,2.14,14.52,6.17,20.71c1.35,2.08,2.92,4.02,4.62,5.88c3.87,4.23,8.4,8.02,12.5,11.92
			c5.3,5.05,10.32,10.54,16.89,14.12c6.21,3.38,13.29,5.15,20.43,5.16h0.06c7.69,0,15.3-2.09,21.82-5.96
			c1.58-0.94,3.09-1.98,4.53-3.1c0.69-0.54,1.36-1.1,2.01-1.68c0.63-0.57,0.82-0.84,0.67-1.15
			C319.08,114.43,302.79,98.92,300.21,96.49z"/>
		<path class="st2" d="M290.1,126.56c-7.14-0.01-14.23-1.79-20.43-5.16c-6.58-3.58-11.59-9.07-16.89-14.12
			c-4.1-3.91-8.64-7.69-12.5-11.92l8.51-8.16L290.1,126.56z"/>
		<path class="st2" d="M302.83,72.69c-3.32-2.6-7.69-4.09-12.67-4.09c-2.64,0-5.12,0.43-7.35,1.22c-3.16-2.72-6.07-5.72-9.07-8.58
			c-4.1-3.91-8.64-7.69-12.5-11.92l8.51-8.16L302.83,72.69z"/>
		<path class="st3" d="M284.8,55.4c-3.42-3.26-8.28-5.15-13.91-5.15c-11.26,0-19.43,7.78-19.43,18.51
			c0,10.73,8.17,18.51,19.43,18.51c5.63,0,10.49-1.89,13.91-5.26l15.46,14.52c-7.51,7.15-17.89,11.68-29.37,11.68
			c-22.85,0-41.4-17.67-41.4-39.45c0-21.77,18.55-39.45,41.4-39.45c11.37,0,21.64,4.31,29.15,11.47L284.8,55.4z"/>
		<path class="st4" d="M270.89,32.89c8.77,0,17.05,2.82,23.71,8.02l-10.05,9.64c-3.83-2.53-8.56-3.89-13.66-3.89
			c-13.44,0-23.19,9.29-23.19,22.09c0,12.8,9.75,22.09,23.19,22.09c5.15,0,9.91-1.4,13.72-3.99l10.18,9.56
			c-6.77,5.31-15.13,8.2-23.9,8.2c-20.76,0-37.64-16.09-37.64-35.86S250.13,32.89,270.89,32.89 M270.89,29.31
			c-22.85,0-41.4,17.67-41.4,39.45c0,21.77,18.55,39.45,41.4,39.45c11.48,0,21.86-4.52,29.37-11.68L284.8,82.01
			c-3.42,3.37-8.28,5.26-13.91,5.26c-11.26,0-19.43-7.78-19.43-18.51c0-10.73,8.17-18.51,19.43-18.51c5.63,0,10.49,1.89,13.91,5.15
			l15.24-14.62C292.53,33.63,282.26,29.31,270.89,29.31L270.89,29.31z"/>
	</g>
	<g>
		<path class="st5" d="M321.87,30.03h24.59l15.8,15.74l10.94-15.74h24.59l18.11,18.11l-25.61,36.78l28.17,40.05h-24.59l-18.11-18.11
			l-0.49-0.62L362,124.97h-24.59l-18.11-18.11l28.17-40.05L321.87,30.03z"/>
		<path class="st3" d="M390.28,84.92l0.89-1.28l-17.85-18.49l3.48-5l17.88,18.45l4.24-6.09l-17.91-18.4l3.6-5.17l17.9,18.42
			l4.2-6.02l-17.93-18.38l4.67-6.71c5.99,6.11,11.98,12.22,17.95,18.34l4.48-6.44l-12.07-12.07c-2.01-1.98-4.06-4.01-6.07-5.99
			l0.03-0.05h-0.08h-10.33h-11.2h-2.98l-6.5,9.35l0,0l-3.72,5.36l-3.09,4.45l-13.42-19.16h-24.59l25.61,36.78l-4.31,6.13l0,0
			l-2.32,3.3l-6.13,8.71l-3.75,5.33l0,0l-11.66,16.58h7.03l17.62,18.11h9.63l-17.68-18.11h7.98l1.36-1.91l17.91,18.39l4.1-5.79
			l-17.88-18.43l3.88-5.47l17.79,18.54l4.21-5.95l0.49,0.62l7.8,7.8l-7.55-7.8h8.35c6.42,6.69,12.41,12.93,17.39,18.11h10.31
			c-5.82-6.04-11.64-12.07-17.46-18.11h5.75l-7.57-10.76l20.24,21.13L390.28,84.92z M360.95,91.31l-3.47-3.59l2.4-3.39l15.21,21.59
			L360.95,91.31z"/>
		<path class="st4" d="M397.78,30.03l-25.61,36.78l28.17,40.05h-24.59l-15.88-22.54l-15.98,22.54h-24.59l28.17-40.05l-25.61-36.78
			h24.59l13.42,19.16l13.32-19.16H397.78z"/>
	</g>
</g>
<g>
	<path class="st6" d="M456.38,43.08v20.29h11.15v6.26H449.9V43.08H456.38z"/>
	<path class="st6" d="M477.14,66.1c-2.67-2.6-4-5.84-4-9.71s1.33-7.12,4-9.76c2.67-2.64,5.91-3.96,9.73-3.96
		c3.82,0,7.06,1.32,9.75,3.96c2.68,2.64,4.02,5.9,4.02,9.76c0,3.82-1.34,7.04-4.02,9.67c-2.68,2.63-5.93,3.94-9.75,3.94
		C483.05,70,479.81,68.7,477.14,66.1z M479.59,56.39c0,1.21,0.21,2.31,0.62,3.28c0.42,0.97,0.97,1.76,1.65,2.35
		c0.68,0.59,1.46,1.06,2.33,1.38c0.87,0.33,1.76,0.49,2.65,0.47c0.9-0.01,1.78-0.18,2.65-0.49c0.87-0.32,1.65-0.78,2.33-1.38
		c0.68-0.61,1.23-1.4,1.65-2.37c0.42-0.97,0.63-2.05,0.63-3.24c0-1.37-0.27-2.59-0.8-3.68c-0.53-1.09-1.23-1.91-2.08-2.46
		c-0.86-0.56-1.8-0.97-2.83-1.23c-1.02-0.27-2.05-0.27-3.09,0c-1.04,0.27-1.99,0.68-2.84,1.23c-0.86,0.56-1.55,1.37-2.09,2.45
		C479.86,53.77,479.59,55,479.59,56.39z"/>
	<path class="st6" d="M526.38,49.15l3.3,9.29l5.08-15.36h6.48v0.8l-8.61,25.9h-5.73l-3.34-9.21l-3.26,9.21h-5.73l-8.61-25.9v-0.8
		h6.48l5.08,15.36l3.34-9.29H526.38z"/>
	<path class="st6" d="M554.67,59.5v3.87h11v6.26h-17.52V43.08h17.48v6.26h-10.96v3.87h10.73v6.29H554.67z"/>
	<path class="st6" d="M579.77,60.64h-1.06v8.99h-6.45V43.08h10.31c1.69,0,3.2,0.33,4.51,0.99c1.31,0.66,2.33,1.5,3.03,2.52
		c0.71,1.02,1.18,2.19,1.42,3.49c0.24,1.3,0.22,2.57-0.06,3.79c-0.28,1.23-0.85,2.4-1.71,3.51c-0.86,1.11-1.95,1.98-3.26,2.62
		l5.69,8.42v1.21h-6.9L579.77,60.64z M578.71,49.3v5.46h3.72c0.91,0,1.63-0.28,2.16-0.85c0.53-0.57,0.8-1.19,0.8-1.88
		s-0.26-1.31-0.78-1.88c-0.52-0.57-1.25-0.85-2.18-0.85H578.71z"/>
	<path class="st6" d="M618.67,56.43v13.2h-6.48V43.08h5.16l6.98,10.28l6.98-10.28h5.08v26.54h-6.45V56.5l-3.83,5.65h-3.6
		L618.67,56.43z"/>
	<path class="st6" d="M661.52,69.62l-1.48-3.91h-9.06l-1.48,3.91h-6.94l10.62-26.85h4.63l11.04,26.85H661.52z M655.53,53.47
		l-1.97,5.61l-0.23,0.61h4.4l-0.15-0.46L655.53,53.47z"/>
	<path class="st6" d="M690.64,43.08v5.92h-4.4v14.83h4.4v5.8h-15.28v-5.8h4.4V48.99h-4.4v-5.92H690.64z"/>
	<path class="st6" d="M704.33,69.62h-6.45V43.08h5l9.18,13.27V43.08h6.41v26.54h-5.08l-9.06-12.93V69.62z"/>
	<path class="st6" d="M732.28,43.08v20.29h11.15v6.26h-17.63V43.08H732.28z"/>
	<path class="st6" d="M768.49,69.62l-1.48-3.91h-9.06l-1.48,3.91h-6.94l10.62-26.85h4.63l11.04,26.85H768.49z M762.5,53.47
		l-1.97,5.61l-0.23,0.61h4.4l-0.15-0.46L762.5,53.47z"/>
	<path class="st6" d="M788.09,69.62h-6.45V43.08h5l9.18,13.27V43.08h6.41v26.54h-5.08l-9.06-12.93V69.62z"/>
	<path class="st6" d="M809.59,43.08h10.01c2.12,0,4.04,0.38,5.74,1.14s3.08,1.77,4.13,3.03c1.05,1.26,1.86,2.68,2.43,4.25
		c0.57,1.57,0.85,3.2,0.85,4.89c0,1.69-0.28,3.32-0.83,4.87c-0.56,1.55-1.37,2.96-2.43,4.23c-1.06,1.26-2.45,2.27-4.15,3.01
		c-1.71,0.75-3.62,1.12-5.74,1.12h-10.01V43.08z M816.04,63.44h3.56c2.12,0,3.78-0.7,4.97-2.1s1.78-3.05,1.78-4.95
		s-0.6-3.56-1.8-5.01c-1.2-1.44-2.85-2.16-4.95-2.16h-3.56V63.44z"/>
	<path class="st7" d="M461.73,96.75c0,1.99,0.39,3.73,1.18,5.22c0.79,1.49,1.79,2.61,2.99,3.37c1.21,0.76,2.55,1.22,4.03,1.37
		c1.48,0.15,2.89,0,4.22-0.46c1.33-0.46,2.53-1.27,3.59-2.43c1.06-1.17,1.79-2.59,2.17-4.28h8.35c-0.61,4.59-2.53,8.31-5.77,11.15
		c-3.23,2.84-7.07,4.26-11.51,4.26c-4.86,0-8.99-1.74-12.38-5.22c-3.39-3.48-5.09-7.8-5.09-12.97c0-5.17,1.7-9.52,5.09-13.05
		c3.39-3.53,7.52-5.3,12.38-5.3c4.41,0,8.25,1.43,11.53,4.28c3.28,2.85,5.18,6.53,5.69,11.02h-8.35c-0.42-1.65-1.16-3.06-2.22-4.21
		c-1.06-1.15-2.26-1.94-3.59-2.38c-1.34-0.44-2.74-0.57-4.2-0.38c-1.46,0.19-2.79,0.66-3.98,1.42s-2.18,1.89-2.97,3.4
		C462.12,93.06,461.73,94.79,461.73,96.75z"/>
	<path class="st7" d="M525.91,78.96v0.91l-12.11,20.22v14.34h-8.25v-14.29l-12.11-20.37v-0.81h9.07l3.38,5.68l3.81,7.25l4-7.7
		l3.09-5.22H525.91z"/>
	<path class="st7" d="M539.04,96.75c0,1.99,0.39,3.73,1.18,5.22c0.79,1.49,1.79,2.61,2.99,3.37c1.21,0.76,2.55,1.22,4.03,1.37
		c1.48,0.15,2.89,0,4.22-0.46c1.33-0.46,2.53-1.27,3.59-2.43c1.06-1.17,1.79-2.59,2.17-4.28h8.35c-0.61,4.59-2.53,8.31-5.77,11.15
		c-3.23,2.84-7.07,4.26-11.51,4.26c-4.86,0-8.99-1.74-12.38-5.22c-3.39-3.48-5.09-7.8-5.09-12.97c0-5.17,1.7-9.52,5.09-13.05
		c3.39-3.53,7.52-5.3,12.38-5.3c4.41,0,8.25,1.43,11.53,4.28c3.28,2.85,5.18,6.53,5.69,11.02h-8.35c-0.42-1.65-1.16-3.06-2.22-4.21
		c-1.06-1.15-2.26-1.94-3.59-2.38c-1.34-0.44-2.74-0.57-4.2-0.38c-1.46,0.19-2.79,0.66-3.98,1.42s-2.18,1.89-2.97,3.4
		C539.43,93.06,539.04,94.79,539.04,96.75z"/>
	<path class="st7" d="M582.71,78.96v27.11h14.19v8.36h-22.44V78.96H582.71z"/>
	<path class="st7" d="M609.14,109.72c-3.39-3.48-5.09-7.8-5.09-12.97c0-5.17,1.7-9.52,5.09-13.05c3.39-3.53,7.52-5.3,12.38-5.3
		c4.86,0,8.99,1.77,12.4,5.3c3.41,3.53,5.12,7.88,5.12,13.05c0,5.1-1.71,9.41-5.12,12.92c-3.41,3.51-7.55,5.27-12.4,5.27
		C616.66,114.94,612.53,113.2,609.14,109.72z M612.25,96.75c0,1.62,0.27,3.08,0.8,4.38c0.53,1.3,1.23,2.35,2.1,3.14
		c0.87,0.79,1.86,1.41,2.97,1.85c1.11,0.44,2.24,0.65,3.38,0.63c1.14-0.02,2.27-0.24,3.38-0.66c1.11-0.42,2.1-1.04,2.97-1.85
		c0.87-0.81,1.57-1.87,2.1-3.17c0.53-1.3,0.8-2.74,0.8-4.33c0-1.82-0.34-3.46-1.01-4.92c-0.68-1.45-1.56-2.55-2.65-3.29
		c-1.09-0.74-2.29-1.29-3.59-1.65c-1.3-0.35-2.61-0.35-3.93,0c-1.32,0.35-2.53,0.9-3.62,1.65c-1.09,0.74-1.98,1.83-2.65,3.27
		C612.59,93.25,612.25,94.89,612.25,96.75z"/>
	<path class="st7" d="M655.92,96.75c0,1.99,0.39,3.73,1.18,5.22c0.79,1.49,1.79,2.61,2.99,3.37c1.21,0.76,2.55,1.22,4.03,1.37
		c1.48,0.15,2.89,0,4.22-0.46c1.33-0.46,2.53-1.27,3.59-2.43c1.06-1.17,1.79-2.59,2.17-4.28h8.35c-0.61,4.59-2.53,8.31-5.77,11.15
		c-3.23,2.84-7.07,4.26-11.51,4.26c-4.86,0-8.99-1.74-12.38-5.22c-3.39-3.48-5.09-7.8-5.09-12.97c0-5.17,1.7-9.52,5.09-13.05
		c3.39-3.53,7.52-5.3,12.38-5.3c4.41,0,8.25,1.43,11.53,4.28c3.28,2.85,5.18,6.53,5.69,11.02h-8.35c-0.42-1.65-1.16-3.06-2.22-4.21
		c-1.06-1.15-2.26-1.94-3.59-2.38c-1.34-0.44-2.74-0.57-4.2-0.38c-1.46,0.19-2.79,0.66-3.98,1.42s-2.18,1.89-2.97,3.4
		C656.32,93.06,655.92,94.79,655.92,96.75z"/>
	<path class="st7" d="M700.95,102.43h-1.35v12.01h-8.2V78.96h13.13c2.15,0,4.07,0.44,5.74,1.32c1.67,0.88,2.96,2,3.86,3.37
		c0.9,1.37,1.5,2.92,1.81,4.66c0.31,1.74,0.28,3.43-0.07,5.07c-0.35,1.64-1.08,3.2-2.17,4.69c-1.09,1.49-2.48,2.65-4.15,3.5
		l7.24,11.25v1.62H708L700.95,102.43z M699.6,87.27v7.3h4.73c1.16,0,2.08-0.38,2.75-1.14s1.01-1.6,1.01-2.51s-0.33-1.75-0.99-2.51
		s-1.58-1.14-2.77-1.14H699.6z"/>
	<path class="st7" d="M729.11,109.72c-3.39-3.48-5.09-7.8-5.09-12.97c0-5.17,1.7-9.52,5.09-13.05c3.39-3.53,7.52-5.3,12.38-5.3
		c4.86,0,8.99,1.77,12.4,5.3c3.41,3.53,5.12,7.88,5.12,13.05c0,5.1-1.71,9.41-5.12,12.92c-3.41,3.51-7.55,5.27-12.4,5.27
		C736.63,114.94,732.5,113.2,729.11,109.72z M732.22,96.75c0,1.62,0.27,3.08,0.8,4.38c0.53,1.3,1.23,2.35,2.1,3.14
		c0.87,0.79,1.86,1.41,2.97,1.85c1.11,0.44,2.24,0.65,3.38,0.63c1.14-0.02,2.27-0.24,3.38-0.66c1.11-0.42,2.1-1.04,2.97-1.85
		c0.87-0.81,1.57-1.87,2.1-3.17c0.53-1.3,0.8-2.74,0.8-4.33c0-1.82-0.34-3.46-1.01-4.92c-0.68-1.45-1.56-2.55-2.65-3.29
		c-1.09-0.74-2.29-1.29-3.59-1.65c-1.3-0.35-2.61-0.35-3.93,0c-1.32,0.35-2.53,0.9-3.62,1.65c-1.09,0.74-1.98,1.83-2.65,3.27
		C732.56,93.25,732.22,94.89,732.22,96.75z"/>
	<path class="st7" d="M792.6,90.16h-8.3c0-1.15-0.4-2.04-1.21-2.69c-0.8-0.64-1.87-0.96-3.18-0.96c-1.29,0-2.33,0.28-3.14,0.84
		c-0.8,0.56-1.21,1.31-1.21,2.25c0,0.3,0.06,0.59,0.19,0.86c0.13,0.27,0.27,0.49,0.43,0.66c0.16,0.17,0.39,0.33,0.7,0.48
		s0.57,0.27,0.8,0.35c0.22,0.08,0.52,0.15,0.89,0.2c0.37,0.05,0.64,0.08,0.82,0.1c0.18,0.02,0.44,0.04,0.8,0.08l0.48,0.05
		c1.48,0.2,2.75,0.44,3.81,0.71c1.06,0.27,2.23,0.7,3.5,1.29c1.27,0.59,2.32,1.42,3.16,2.48s1.43,2.36,1.79,3.88
		c0.16,0.91,0.24,1.74,0.24,2.48c0,3.51-1.35,6.33-4.05,8.46c-2.7,2.13-5.78,3.19-9.22,3.19c-1.45,0-2.9-0.25-4.37-0.73
		c-1.46-0.49-2.86-1.21-4.17-2.15c-1.32-0.95-2.39-2.26-3.21-3.95c-0.82-1.69-1.23-3.6-1.23-5.73h8.35c0,1.55,0.47,2.64,1.42,3.24
		c0.95,0.61,2.03,0.91,3.26,0.91c3.25,0,4.88-0.95,4.88-2.84c0-0.34-0.07-0.65-0.19-0.94c-0.13-0.29-0.34-0.52-0.63-0.71
		c-0.29-0.19-0.55-0.34-0.8-0.46c-0.24-0.12-0.57-0.22-0.99-0.3c-0.42-0.08-0.73-0.15-0.94-0.2s-0.51-0.09-0.92-0.13
		c-0.4-0.03-0.62-0.05-0.65-0.05c-1.32-0.13-2.45-0.29-3.38-0.46c-0.93-0.17-1.99-0.48-3.16-0.94c-1.17-0.46-2.15-1.02-2.92-1.7
		c-0.77-0.68-1.45-1.6-2.03-2.79c-0.58-1.18-0.93-2.55-1.06-4.1v0.05c-0.19-3.78,0.97-6.81,3.48-9.07c2.51-2.26,5.65-3.4,9.41-3.4
		c2.12,0,4.1,0.39,5.94,1.17c1.83,0.78,3.39,2.09,4.68,3.93C791.95,85.39,792.6,87.6,792.6,90.16z"/>
	<path class="st7" d="M827.68,90.16h-8.3c0-1.15-0.4-2.04-1.21-2.69c-0.8-0.64-1.87-0.96-3.18-0.96c-1.29,0-2.33,0.28-3.14,0.84
		c-0.8,0.56-1.21,1.31-1.21,2.25c0,0.3,0.06,0.59,0.19,0.86c0.13,0.27,0.27,0.49,0.43,0.66c0.16,0.17,0.39,0.33,0.7,0.48
		s0.57,0.27,0.8,0.35c0.22,0.08,0.52,0.15,0.89,0.2c0.37,0.05,0.64,0.08,0.82,0.1c0.18,0.02,0.44,0.04,0.8,0.08l0.48,0.05
		c1.48,0.2,2.75,0.44,3.81,0.71c1.06,0.27,2.23,0.7,3.5,1.29c1.27,0.59,2.32,1.42,3.16,2.48s1.43,2.36,1.79,3.88
		c0.16,0.91,0.24,1.74,0.24,2.48c0,3.51-1.35,6.33-4.05,8.46c-2.7,2.13-5.78,3.19-9.22,3.19c-1.45,0-2.9-0.25-4.37-0.73
		c-1.46-0.49-2.86-1.21-4.17-2.15c-1.32-0.95-2.39-2.26-3.21-3.95c-0.82-1.69-1.23-3.6-1.23-5.73h8.35c0,1.55,0.47,2.64,1.42,3.24
		c0.95,0.61,2.03,0.91,3.26,0.91c3.25,0,4.88-0.95,4.88-2.84c0-0.34-0.07-0.65-0.19-0.94c-0.13-0.29-0.34-0.52-0.63-0.71
		c-0.29-0.19-0.55-0.34-0.8-0.46c-0.24-0.12-0.57-0.22-0.99-0.3c-0.42-0.08-0.73-0.15-0.94-0.2s-0.51-0.09-0.92-0.13
		c-0.4-0.03-0.62-0.05-0.65-0.05c-1.32-0.13-2.45-0.29-3.38-0.46c-0.93-0.17-1.99-0.48-3.16-0.94c-1.17-0.46-2.15-1.02-2.92-1.7
		c-0.77-0.68-1.45-1.6-2.03-2.79c-0.58-1.18-0.93-2.55-1.06-4.1v0.05c-0.19-3.78,0.97-6.81,3.48-9.07c2.51-2.26,5.65-3.4,9.41-3.4
		c2.12,0,4.1,0.39,5.94,1.17c1.83,0.78,3.39,2.09,4.68,3.93C827.03,85.39,827.68,87.6,827.68,90.16z"/>
</g>
</svg>
