<?xml version="1.0" encoding="UTF-8"?>
<svg id="Layer_1" xmlns="http://www.w3.org/2000/svg" version="1.1" viewBox="0 0 551.34 580.91">
  <!-- Generator: Adobe Illustrator 29.4.0, SVG Export Plug-In . SVG Version: 2.1.0 Build 152)  -->
  <defs>
    <style>
      .st0 {
        fill: #30302f;
      }

      .st1 {
        fill: #b7a4cf;
      }

      .st2 {
        fill: #8256a3;
      }

      .st3 {
        fill: #9bce7b;
      }

      .st4 {
        fill: #303736;
      }

      .st5 {
        fill: #e3f0da;
        stroke: #8256a3;
        stroke-miterlimit: 10;
        stroke-width: 10px;
      }
    </style>
  </defs>
  <rect class="st5" x="4.82" y="4.75" width="541.66" height="571.17"/>
  <g>
    <path class="st0" d="M173.44,180.23h-24.8v-97.17l-44.48-44.48h-50.54v192.46l44.48,44.48h119.83v-50.8l-44.48-44.48Z"/>
    <polygon class="st3" points="217.91 224.72 217.91 275.52 173.44 231.04 168.75 180.23 173.44 180.23 217.91 224.72"/>
    <path class="st1" d="M53.6,38.59h50.55v141.65h69.28v50.81H53.6V38.59Z"/>
    <path class="st2" d="M95.58,47.16v141.65h69.28v33.67H62.17V47.16h33.41M104.15,38.59h-50.55v192.46h119.84v-50.81h-69.28V38.59h0Z"/>
  </g>
  <g>
    <path class="st2" d="M242.41,40.04h22.84l78.52,71.34,78.26-71.34h22.84l45.02,45.02v192.46h-50.81l-45.02-45.02-55.83-53.52v98.54h-50.81l-45.02-45.02V40.04Z"/>
    <path class="st1" d="M242.41,232.49V40.04h22.84l78.52,71.34,78.26-71.34h22.84v192.46l45.02,45.02h-50.81l-100.85-98.54v98.54l-45.02-45.02h-50.81Z"/>
    <path class="st3" d="M242.41,232.49V40.04h22.84l78.52,71.34,78.26-71.34h22.84v192.46h-50.81v-98.79l-50.29,45.93-50.55-45.68v98.54l45.02,45.02h-50.81l-45.02-45.02Z"/>
    <path class="st0" d="M343.77,111.37l78.26-71.34h22.84v192.46h-50.81v-98.79l-50.29,45.93-50.55-45.68v98.54h-50.81V40.04h22.84l78.52,71.34Z"/>
  </g>
  <g>
    <path class="st0" d="M219.19,460.13c-1.98-1.88-3.98-3.74-5.97-5.61-7.93-7.44-15.86-14.88-23.78-22.34-2.92-2.74-5.84-5.47-8.75-8.21-8.55,8.41-20.68,13.13-34.75,13.13-.14,0-.26,0-.39,0,0-.13,0-.24,0-.37,0-20.52,11.95-36.72,30.17-43.19,5.59-1.99,11.76-3.06,18.36-3.06,12.44,0,23.37,3.7,31.65,10.21,1.08.84,2.11,1.74,3.1,2.67l38.06-36.52c-16.17-15.4-32.18-30.96-48.51-46.22-13.35-12.48-30-21.45-48.23-25.59-7.92-1.81-16.06-2.7-24.2-2.7-57.09,0-103.42,44.15-103.42,98.54,0,18.21,5.35,36.26,15.41,51.75,3.37,5.19,7.29,10.04,11.54,14.69,9.66,10.57,20.99,20.03,31.23,29.79,13.24,12.61,25.77,26.33,42.2,35.28,15.5,8.44,33.2,12.87,51.03,12.9h.14c19.21,0,38.21-5.21,54.52-14.89,3.94-2.34,7.73-4.94,11.31-7.76,1.72-1.35,3.41-2.74,5.01-4.2,1.57-1.43,2.05-2.1,1.67-2.88-.28-.59-40.97-39.32-47.4-45.4Z"/>
    <path class="st3" d="M193.94,535.25c-17.84-.03-35.53-4.46-51.03-12.9-16.43-8.94-28.96-22.67-42.2-35.28-10.24-9.76-21.57-19.21-31.23-29.79l21.25-20.38,103.22,98.35Z"/>
    <path class="st3" d="M225.73,400.68c-8.28-6.5-19.21-10.21-31.65-10.21-6.6,0-12.78,1.07-18.36,3.06-7.89-6.79-15.16-14.29-22.66-21.44-10.24-9.76-21.57-19.21-31.23-29.79l21.25-20.38,82.66,78.76Z"/>
    <path class="st1" d="M180.69,357.49c-8.55-8.15-20.68-12.87-34.75-12.87-28.13,0-48.54,19.44-48.54,46.25s20.41,46.25,48.54,46.25c14.07,0,26.2-4.73,34.75-13.14l38.61,36.26c-18.75,17.87-44.68,29.17-73.36,29.17-57.09,0-103.42-44.14-103.42-98.53s46.33-98.53,103.42-98.53c28.41,0,54.05,10.77,72.81,28.64l-38.06,36.52Z"/>
    <path class="st2" d="M145.94,301.27c21.9,0,42.6,7.06,59.23,20.03l-25.1,24.09c-9.57-6.32-21.38-9.72-34.13-9.72-33.57,0-57.93,23.21-57.93,55.19s24.36,55.19,57.93,55.19c12.87,0,24.74-3.49,34.28-9.96l25.43,23.88c-16.91,13.27-37.79,20.48-59.71,20.48-51.85,0-94.03-40.19-94.03-89.59s42.18-89.59,94.03-89.59M145.94,292.33c-57.09,0-103.42,44.14-103.42,98.53s46.33,98.53,103.42,98.53c28.68,0,54.61-11.3,73.36-29.17l-38.61-36.26c-8.55,8.41-20.68,13.14-34.75,13.14-28.13,0-48.54-19.44-48.54-46.25s20.41-46.25,48.54-46.25c14.07,0,26.2,4.73,34.75,12.87l38.06-36.52c-18.75-17.87-44.4-28.64-72.81-28.64h0Z"/>
  </g>
  <g>
    <path class="st4" d="M264.22,296.93h61.42l39.46,39.32,27.33-39.32h61.42l45.24,45.24-63.97,91.87,70.37,100.06h-61.42l-45.24-45.24-1.23-1.55-33.12,46.79h-61.42l-45.24-45.24,70.37-100.06-63.97-91.87Z"/>
    <path class="st1" d="M435.11,434.04l2.23-3.21-44.58-46.19,8.7-12.49,44.66,46.08,10.59-15.21-44.74-45.96,8.99-12.91,44.7,46.01,10.48-15.05-44.78-45.9,11.67-16.76c14.96,15.26,29.91,30.52,44.85,45.8l11.2-16.08-30.15-30.15c-5.02-4.95-10.15-10.01-15.17-14.97l.08-.12h-61.42l-16.24,23.36h0l-9.3,13.38-7.72,11.11-33.52-47.85h-61.42l63.97,91.87-10.77,15.31h0l-5.8,8.24-15.3,21.75-9.37,13.32h0l-29.13,41.42h17.56l44.02,45.24h24.06l-44.16-45.24h19.93l3.39-4.78,44.73,45.95,10.23-14.46-44.65-46.04,9.69-13.67,44.43,46.32,10.53-14.87,1.23,1.55,19.48,19.48-18.85-19.48h20.85c16.04,16.71,31.01,32.29,43.45,45.24h25.75c-14.53-15.08-29.07-30.16-43.6-45.24h14.36l-18.9-26.88,50.55,52.79-56.78-80.72ZM361.84,449.99l-8.68-8.97,6-8.47,37.99,53.92-35.32-36.49Z"/>
    <path class="st2" d="M453.84,296.93l-63.97,91.87,70.37,100.06h-61.42l-39.66-56.3-39.92,56.3h-61.42l70.37-100.06-63.97-91.87h61.42l33.52,47.85,33.27-47.85h61.42Z"/>
  </g>
</svg>