<?xml version="1.0" encoding="UTF-8"?>
<svg xmlns="http://www.w3.org/2000/svg" viewBox="0 0 1697 707" width="1697" height="707">
<path d="M521.2 89.86C521.2 265.55 521.2 441.24 521.2 616.93C517.75 616.93 514.3 616.93 510.85 616.93C509.08 611.57 509.98 605.13 509.98 599.5C509.98 588.83 509.98 578.17 509.98 567.5C509.98 530.83 509.98 494.17 509.98 457.5C509.98 374.5 509.98 291.5 509.98 208.5C509.98 182.17 509.98 155.83 509.98 129.5C509.98 118.55 508.45 100.03 510.5 90.02C513.92 88.6 517.61 88.94 521.2 89.86ZM603.05 147.5C604.46 151.82 603.78 156.94 603.78 161.5C603.78 169.17 603.78 176.83 603.78 184.5C603.78 200.86 604.44 217.81 625.5 217.81C646.49 217.82 647.18 200.82 647.18 184.5C647.18 176.83 647.18 169.17 647.18 161.5C647.18 156.95 646.49 151.81 647.91 147.5C651.28 145.92 654.91 145.89 658.26 147.5C660.59 154.33 659.05 166.04 659.05 173.5C659.05 193.26 662.09 219.35 638.62 227.19C634.94 228.42 631.4 229.04 627.5 229.12C623.13 229.22 618.77 229.16 614.54 227.93C589.2 220.53 591.97 195.75 591.97 174.5C591.97 166.96 590.3 154.27 592.77 147.5C596.03 145.85 599.76 145.9 603.05 147.5ZM777.5 205.32C779.56 193.83 778.01 176.64 778.01 164.5C778.01 159.1 777 152.57 778.86 147.5C782.19 145.89 785.86 145.9 789.2 147.5C791.52 154.19 790 163.4 790 170.5C790 183.17 790 195.83 790 208.5C790 214.51 791.1 221.79 789.26 227.5C780.77 232.56 776 222.71 771.49 217.01C759.12 201.38 747.26 185.27 734.5 169.95C733.4 174.91 733.93 180.38 733.93 185.5C733.93 194.17 733.93 202.83 733.93 211.5C733.93 216.57 735.3 223.71 732.5 228.05C729.13 229.22 725.69 229.24 722.56 227.5C720.77 221.78 721.87 214.5 721.87 208.5C721.87 195.83 721.87 183.17 721.87 170.5C721.87 163.42 720.34 154.17 722.63 147.5C731.67 143.15 736.08 152.51 740.92 158.61C753.2 174.11 765 190.01 777.5 205.32ZM864.5 147.27C866.47 153.03 865.36 160.41 865.36 166.5C865.36 179.17 865.36 191.83 865.36 204.5C865.36 211.71 866.85 220.94 864.5 227.74C861.27 229.22 857.77 229.23 854.5 227.87C851.81 222.69 853.38 214.3 853.38 208.5C853.38 194.17 853.38 179.83 853.38 165.5C853.38 159.93 851.95 152.19 854.5 147.18C857.85 146.05 861.19 146.02 864.5 147.27ZM981.5 147.15C983.2 150.83 982.76 154.06 981.5 157.8C972.69 157.8 963.89 157.8 955.08 157.8C955.08 181.04 955.08 204.27 955.08 227.5C951.11 229.24 947.26 229.29 943.3 227.5C943.3 204.5 943.3 181.5 943.3 158.5C934.84 156.56 924.06 160.41 916.22 156.5C916.22 153.5 916.22 150.5 916.22 147.5C922 145.22 929.32 146.37 935.5 146.37C945.5 146.37 955.5 146.37 965.5 146.37C970.69 146.37 976.54 145.57 981.5 147.15ZM1089.88 147.5C1089.88 150.57 1089.88 153.64 1089.88 156.71C1085.17 158.67 1079.57 157.86 1074.5 157.86C1064.71 157.86 1054.89 157.64 1045.11 157.97C1045.11 165.64 1045.11 173.3 1045.11 180.97C1053.89 181.31 1062.71 181.1 1071.5 181.1C1075.8 181.1 1080.54 180.41 1084.5 182.15C1085.67 185.45 1085.71 188.43 1084.5 191.74C1080.54 193.39 1075.79 192.71 1071.5 192.71C1062.71 192.71 1053.88 192.46 1045.1 192.86C1045.1 200.91 1045.1 208.95 1045.1 217C1055.54 217.44 1066.05 217.14 1076.5 217.14C1081.16 217.14 1087.15 216.02 1091.18 218.5C1092.19 221.51 1092.18 224.48 1091.16 227.5C1087.16 229.93 1081.13 228.81 1076.5 228.81C1067.17 228.81 1057.83 228.81 1048.5 228.81C1043.96 228.81 1038.77 229.52 1034.5 228.08C1031.29 223.65 1033 214.89 1033 209.5C1033 194.5 1033 179.5 1033 164.5C1033 159.32 1031.42 151.24 1034.5 146.97C1042.63 144.85 1062.14 146.37 1071.5 146.37C1077.45 146.37 1084.29 145.35 1089.88 147.5ZM1149.77 227.5C1147.76 221.97 1148.99 214.41 1148.99 208.5C1148.99 195.5 1148.99 182.5 1148.99 169.5C1148.99 162.83 1147.4 153.66 1149.85 147.5C1155.36 144.64 1168.89 146.37 1175.5 146.37C1184.35 146.37 1193.17 146.49 1201.42 150.08C1226.92 161.19 1234.42 196.7 1214.16 216.65C1202.43 228.2 1187 228.81 1171.5 228.81C1165.77 228.81 1154.42 230.3 1149.77 227.5ZM1161.05 157.93C1161.05 177.64 1161.05 197.34 1161.05 217.05C1174.36 217.41 1190.4 219.48 1201.94 211.45C1218.97 199.61 1217.18 171.21 1198.74 161.72C1187.48 155.93 1173.3 157.67 1161.05 157.93ZM232.71 164.48C288.03 162.84 339.99 199.09 361.25 249.26C366.58 261.84 369.71 274.93 371.23 288.48C371.77 293.3 373.76 300.51 369.92 304.42C366.08 308.31 359.54 306.6 357.78 301.61C355.68 295.66 356.71 288.08 355.55 281.81C352.87 267.22 347.74 253.09 340.23 240.28C317.69 201.79 274.16 177.76 229.53 179.4C185.72 181.01 145.5 205.29 124.23 243.74C118.16 254.73 113.53 267.28 111.3 279.65C110.43 284.52 109.72 289.58 109.28 294.52C109.05 297.01 109.43 299.78 108.59 302.18C106.63 307.79 98.33 307.84 95.49 303.04C93.26 299.27 94.63 293.62 95 289.5C96.14 276.91 99.19 264.15 103.88 252.42C125.53 198.32 175 166.18 232.71 164.48ZM222.61 191.33C269.53 186.08 315.79 213.76 335.46 256.05C340.64 267.17 344.03 279.29 345.19 291.5C345.59 295.64 346.93 300.86 343.74 304.25C340.01 308.23 332.71 306.75 331.23 301.32C330.07 297.01 330.6 292 329.8 287.55C327.69 275.73 323.75 264.2 317.64 253.82C299.93 223.71 267.19 205.81 232.5 205.84C197.48 205.88 164.57 225.47 147.57 256.08C142.51 265.19 138.89 275.25 137.02 285.5C136.06 290.73 137.07 297.51 134.79 302.3C132.43 307.27 125.16 308.14 122.02 303.4C120.03 300.39 120.92 295.87 121.18 292.5C121.93 282.79 124.34 273.34 127.64 264.21C142.33 223.49 180.11 196.08 222.61 191.33ZM226.68 217.4C262.63 213.44 298.3 236.65 312.36 269.2C315.84 277.26 318.13 285.75 318.96 294.5C319.27 297.76 319.88 301.35 317.54 304.03C314.38 307.65 307.9 307.4 305.56 302.93C303.28 298.55 304 292.32 302.92 287.52C301.32 280.5 298.55 273.77 294.94 267.57C282.32 245.91 258.63 232.08 233.5 231.93C207.57 231.78 183.1 246.53 170.6 269.11C166.39 276.71 163.73 285.15 162.36 293.71C161.93 296.37 162.36 299.36 161.41 301.9C159.42 307.2 152.14 308.04 148.71 303.77C146.3 300.78 147.1 296.78 147.62 293.3C148.7 286.11 150.2 279.17 152.82 272.37C164.98 240.91 193.67 221.03 226.68 217.4ZM650 320.5C649.51 323.93 648.53 327.03 645.5 328.9C641.74 328.17 638.71 325.7 635.04 324.48C625.94 321.44 603.44 321.38 606.03 336.47C607.14 342.92 615.05 344.76 620.3 346.28C633.06 350 651.17 352.09 653.04 368.5C656.63 400.06 607.44 400.81 592.13 382.5C592.36 378.9 593.73 376.38 596.5 374.05C600.67 374.55 603.05 377.81 606.8 379.67C615.43 383.95 640.18 386.86 641.18 372.5C641.79 363.85 632.31 361.4 625.63 359.72C612.52 356.43 595.15 353.03 594.03 336.5C592.53 314.33 618.39 307.97 635.59 312.82C640.7 314.26 646.8 316.02 650 320.5ZM1251.05 325.5C1249.2 327.6 1247.35 329.69 1245.5 331.79C1240.15 330.93 1236.08 325.54 1230.47 324.07C1213.17 319.53 1193.16 328.77 1190.15 347.52C1186.99 367.22 1202.01 383.21 1221.5 383.07C1227.82 383.02 1234.16 381.51 1239.14 377.5C1239.14 368.83 1239.14 360.17 1239.14 351.5C1242.52 349.75 1245.9 349.5 1249.5 350.77C1252 354.73 1250.85 360.86 1250.85 365.5C1250.85 369.93 1252.03 379.14 1250.46 382.99C1248.33 388.18 1235.51 392.89 1230.44 393.73C1208.2 397.41 1185.69 387.15 1179.14 364.44C1172.26 340.6 1188.1 315.61 1212.5 311.9C1222.92 310.31 1247.99 312.66 1251.05 325.5ZM1599.8 320.5C1599.31 323.86 1598.2 326.73 1595.5 328.88C1591.64 328.29 1588.68 325.78 1584.95 324.53C1575.59 321.39 1554.99 320.96 1555.91 335.5C1556.37 342.75 1564.48 344.65 1570.25 346.34C1582.39 349.89 1600.5 351.93 1602.81 367.54C1604.67 380.13 1596.27 390.04 1584.56 393.24C1570.34 397.12 1551.93 393.93 1541.93 382.5C1542.17 378.88 1543.45 376.08 1546.5 374.01C1550.52 374.68 1553.06 377.93 1556.74 379.76C1565.23 383.98 1590.15 386.76 1590.94 372.5C1591.42 363.87 1582.33 361.5 1575.58 359.77C1563.68 356.7 1545.76 353.61 1543.99 338.5C1541.19 314.68 1566.86 307.62 1585.56 312.88C1590.7 314.32 1596.46 316.08 1599.8 320.5ZM760.5 312.59C762.33 316.13 761.89 319.56 760.5 323.22C751.75 323.22 743 323.22 734.25 323.22C734.25 346.51 734.25 369.81 734.25 393.1C730.68 394.18 727.06 394.48 723.5 393.3C720.41 387.92 722.16 378.65 722.16 372.5C722.16 356.3 723.57 339.32 721.8 323.23C713.24 323.23 704.69 323.23 696.14 323.23C694.74 319.5 694.32 316.06 696.26 312.5C701.3 311.01 707.23 311.78 712.5 311.78C722.17 311.78 731.83 311.78 741.5 311.78C747.44 311.78 754.91 310.58 760.5 312.59ZM861.04 366.5C864.82 372.28 869 377.85 873.05 383.44C875.08 386.26 877.93 388.9 877.16 392.5C874.64 394.34 869.03 395.11 866.1 393.38C864.02 392.16 862.36 388.47 861 386.53C856.91 380.67 852.71 374.88 848.5 369.1C840.35 369.1 832.19 369.1 824.04 369.1C824.04 377.03 824.04 384.95 824.04 392.88C820.59 394.27 817.15 394.35 813.5 393.5C810.6 388.17 812.18 379.55 812.18 373.5C812.18 359.5 812.18 345.5 812.18 331.5C812.18 325.62 810.82 317.86 813.31 312.5C818.62 310.93 824.95 311.78 830.5 311.78C850.89 311.78 875.6 312.68 876.29 339.5C876.39 343.52 875.96 347.37 874.58 351.16C871.35 360.02 866.3 360.59 861.04 366.5ZM957.5 311.93C960.5 311.93 963.5 311.93 966.5 311.93C976.3 330.51 984.19 350.32 993.1 369.39C995.55 374.64 1003.22 387.3 1002.32 392.5C999.11 394.68 995.42 394.18 991.68 393.5C988.29 386.61 984.89 379.73 981.5 372.84C968.5 372.84 955.5 372.84 942.5 372.84C939.17 379.6 935.83 386.35 932.5 393.11C929.08 394.51 924.23 394.82 921.18 392.5C921.21 385.74 927.7 375.59 930.6 369.13C936.06 356.97 941.94 345 947.35 332.81C950.38 325.97 953.04 317.95 957.5 311.93ZM1109.5 370.74C1110.71 357.54 1109.7 343.78 1109.7 330.5C1109.7 324.93 1108.41 317.51 1110.87 312.5C1114.19 311.62 1117.3 311.37 1120.5 312.74C1122.88 319.76 1121.46 329.03 1121.46 336.5C1121.46 348.83 1121.46 361.17 1121.46 373.5C1121.46 379.87 1122.49 387.3 1120.5 393.3C1110.53 396.58 1106.67 387.28 1101.31 380.22C1093.4 369.81 1085.14 359.67 1077.08 349.38C1073.48 344.78 1069.98 338.72 1065.3 335.28C1065.3 354.54 1065.3 373.79 1065.3 393.05C1061.71 394.18 1058.14 394.43 1054.5 393.38C1052.01 388.16 1053.42 380.29 1053.42 374.5C1053.42 360.5 1053.42 346.5 1053.42 332.5C1053.42 326.6 1051.83 317.97 1054.5 312.73C1063.62 308.84 1068.07 318.47 1072.91 324.64C1080.38 334.16 1087.98 343.59 1095.31 353.22C1099.69 358.97 1104.01 366.05 1109.5 370.74ZM1368.02 311.82C1369.37 315.72 1369.32 319.31 1368.14 323.25C1353.44 323.25 1338.74 323.25 1324.04 323.25C1324.04 331 1324.04 338.75 1324.04 346.5C1334.1 347.51 1355.5 344.7 1363.5 347.65C1364.46 351.05 1364.52 353.75 1363.5 357.14C1355.29 360.46 1334.35 356.63 1324.02 358.5C1324.02 366.59 1324.02 374.68 1324.02 382.77C1339.31 382.77 1354.6 382.77 1369.89 382.77C1371.11 386.73 1371.26 390.17 1369.58 393.98C1350.87 393.98 1332.15 393.98 1313.43 393.98C1310.44 387.93 1311.97 379.2 1311.97 372.5C1311.97 358.83 1311.97 345.17 1311.97 331.5C1311.97 325.14 1310.82 317.71 1313.32 311.82C1331.55 311.82 1349.79 311.82 1368.02 311.82ZM1476.77 366.5C1480.44 371.88 1484.29 377.12 1488.04 382.44C1489.46 384.46 1492.35 387.16 1492.9 389.6C1493.23 391.06 1492.8 391.76 1492.5 393.11C1489.81 394.21 1484.79 394.95 1482.04 393.47C1479.79 392.27 1477.9 388.15 1476.43 386.1C1472.4 380.53 1467.98 375.02 1464.5 369.11C1456.32 369.11 1448.13 369.11 1439.95 369.11C1439.95 376.96 1439.95 384.82 1439.95 392.67C1436.29 394.44 1432.09 394.73 1428.5 392.76C1426.95 386.46 1427.91 379.01 1427.91 372.5C1427.91 359.83 1427.91 347.17 1427.91 334.5C1427.91 328.09 1426.05 318.06 1429.2 312.5C1434.54 310.93 1440.92 311.78 1446.5 311.78C1466.8 311.78 1491.38 312.82 1492.03 339.5C1492.13 343.35 1491.73 347.27 1490.45 350.92C1487.77 358.56 1481.81 361.18 1476.77 366.5ZM108.5 332.62C106.16 342 107.78 357.37 107.78 367.5C107.78 379.16 107.48 390.91 109.18 402.47C113.06 428.79 126.51 453.6 145.25 472.26C150.73 477.72 161.74 487.96 168.87 490.59C174.36 492.61 185.38 491.16 191.5 491.16C208.17 491.16 224.83 491.16 241.5 491.16C254.5 491.16 267.5 491.16 280.5 491.16C285.68 491.16 293.14 492.51 297.93 490.43C306.66 486.63 316.94 476.86 323.48 469.98C342.04 450.46 353.65 425.93 357.62 399.34C359.33 387.9 358.68 376.02 358.68 364.5C358.68 354.12 359.29 343.5 358.5 333.16C346.8 330.99 333.44 332.6 321.5 332.6C297.17 332.6 272.83 332.6 248.5 332.6C239.98 332.6 230.42 333.83 222.02 332.48C218.02 331.84 215.56 328.59 216.14 324.54C216.89 319.26 222.37 319.16 226.5 319.16C237.17 319.15 247.83 319.16 258.5 319.16C285.83 319.16 313.17 319.16 340.5 319.16C347.17 319.16 353.83 319.16 360.5 319.16C363.62 319.16 367.12 318.67 369.66 320.86C374.07 324.64 371.94 334.31 372.17 339.5C383.81 341.4 402.12 339.88 414.5 339.88C418.99 339.88 427.36 338.21 430.84 341.68C433.58 344.42 432.81 349 432.81 352.5C432.81 360.83 432.81 369.17 432.81 377.5C432.81 386.77 433.39 396.27 431.76 405.44C427.74 428.1 409.59 448.6 387.29 454.7C375.1 458.04 362.95 456.56 350.5 457.35C342.1 469.91 332.43 480.56 321.08 490.5C326.2 491.86 332.15 491.16 337.5 491.16C347.5 491.16 357.5 491.16 367.5 491.16C372.41 491.16 380.81 489.49 384.98 492.52C390.07 496.23 387.63 504.56 386.19 509.59C381.61 525.59 367.51 539.32 350.5 541.14C341.3 542.13 331.74 541.44 322.5 541.44C305.17 541.44 287.83 541.44 270.5 541.44C225.87 541.44 181.11 542.44 136.5 541.43C118.57 541.03 103.12 529.14 96.89 512.53C95.02 507.55 91.96 497.28 96.56 493.05C99.98 489.9 106.24 491.16 110.5 491.16C120.61 491.16 135.8 492.76 145.21 490.5C120.02 467.21 101.81 441.05 96.32 406.37C94.11 392.46 94.35 378.54 94.35 364.5C94.35 353.83 94.35 343.17 94.35 332.5C94.35 328.6 93.37 323.2 97.03 320.52C100.66 317.87 107.26 319.16 111.5 319.16C122.83 319.16 134.17 319.16 145.5 319.16C150.54 319.16 157.44 318.33 158.5 324.92C159.61 331.84 152.39 332.6 147.5 332.6C134.5 332.61 121.5 332.55 108.5 332.62ZM187.71 319.35C196.53 317.83 198.68 330.88 189.9 332.44C181.79 333.89 179.63 320.74 187.71 319.35ZM824.11 357.81C833.96 358.22 846.78 359.95 855.89 355.4C866.14 350.28 867.52 333.11 857.68 326.83C849.57 321.64 833.41 322.63 824.11 323.5C824.11 334.94 824.11 346.38 824.11 357.81ZM1440 357.5C1448.4 359.01 1464.79 359.3 1472.41 354.97C1482.46 349.25 1482.88 332.65 1472.97 326.53C1465.06 321.64 1449 322.68 1440 323.5C1440 334.83 1440 346.17 1440 357.5ZM961.5 329.7C956.82 340.38 952.13 351.07 947.45 361.76C956.96 361.76 966.47 361.76 975.99 361.76C971.16 351.07 966.33 340.38 961.5 329.7ZM419.18 353.11C403.48 353.11 387.79 353.11 372.1 353.11C372.1 357.41 372.1 361.71 372.1 366.02C379.56 366.16 387.03 366.08 394.5 366.08C397.58 366.08 401.33 365.49 403.89 367.62C407.83 370.89 406.25 382.59 406.25 387.5C406.25 406.6 400.66 421.81 381.38 428.87C375.56 431 369.57 430.79 363.5 431.18C361.73 435.29 359.95 439.39 358.18 443.5C364.19 444.85 371.44 444.31 377.5 443.11C383 442.01 388.31 440.46 393.24 437.72C406.91 430.14 416.84 416.05 418.97 400.5C419.91 393.65 419.29 386.4 419.29 379.5C419.29 370.71 419.47 361.89 419.18 353.11ZM332.8 376.5C343.5 375.15 340 391.67 339.24 397.53C336.83 416.03 329.18 434.38 317.52 449.02C314.01 453.43 308.38 462.68 301.69 459.8C297.96 458.2 296.95 453.7 298.77 450.29C300.76 446.58 304.88 443.35 307.5 439.98C312.41 433.66 316.47 426.54 319.62 419.19C323.83 409.34 326.43 398.2 326.81 387.5C326.97 382.84 326.85 377.25 332.8 376.5ZM372.5 379.56C371.17 392.18 369.83 404.8 368.5 417.42C390.06 416.29 395.52 398.4 392.5 379.56C385.83 379.56 379.17 379.56 372.5 379.56ZM280.57 464.06C288.84 461.7 293.22 473.85 285.1 476.55C276.66 479.36 272.2 466.45 280.57 464.06ZM664.67 490.5C662.61 492.65 660.56 494.81 658.5 496.96C652.41 495.52 649.04 489.68 640.24 488.43C621.42 485.75 603.61 498.77 603.79 518.5C603.98 538.4 622.53 550.91 641.32 547.68C648.99 546.36 652.93 540.39 658.5 539.19C660.55 541.29 662.6 543.4 664.66 545.5C662.06 555.36 643.3 559.95 634.5 559.95C611.75 559.96 592.48 542.52 591.97 519.5C591.44 495.24 610.31 476.46 634.5 476.44C643.53 476.44 661.55 480.56 664.67 490.5ZM750.75 476.47C756.97 476.07 763.6 476.89 769.44 479.1C774.74 481.1 779.54 483.95 783.7 487.82C810.68 512.96 793.06 556.67 757.5 559.84C751.18 560.41 744.28 559.42 738.36 557.16C732.43 554.89 726.91 551.65 722.49 547.02C697.69 521.08 715.57 478.72 750.75 476.47ZM909.29 478.5C910.07 481.6 910.11 484.55 908.91 487.5C904.19 489.25 898.54 488.47 893.5 488.47C884.16 488.47 874.81 488.38 865.47 488.5C863.3 496.06 864.55 505.55 864.64 513.5C873.15 515.7 883.64 514.24 892.5 514.24C896.41 514.24 900.75 513.48 904.14 515.5C905.38 518.44 905.36 521.47 904.33 524.5C900.67 526.8 895.77 525.91 891.5 525.91C882.82 525.91 873.1 524.75 864.65 526.5C864.54 534 866.34 552.5 863.5 558.41C860.11 559.61 856.75 559.67 853.5 558.15C851.78 552.39 852.67 545.54 852.67 539.5C852.67 527.5 852.67 515.5 852.67 503.5C852.67 495.55 851.12 485.61 853.5 478.06C857.58 476.17 862.98 477.03 867.5 477.03C876.83 477.03 886.17 477.03 895.5 477.03C899.97 477.03 905.53 475.98 909.29 478.5ZM1020.5 477.96C1022.1 481.03 1021.92 484.3 1020.69 487.5C1016.6 489.1 1011.88 488.47 1007.5 488.47C997.39 488.47 986.17 487.15 976.23 488.88C976.23 497.34 976.23 505.8 976.23 514.26C989.32 514.26 1002.41 514.26 1015.5 514.26C1017.39 518.25 1017.41 521.9 1015.5 525.88C1002.39 525.88 989.28 525.88 976.18 525.88C976.18 536.65 976.18 547.41 976.18 558.17C972.54 559.42 969.18 559.7 965.5 558.45C963.05 553.15 964.43 545.34 964.43 539.5C964.43 525.5 964.43 511.5 964.43 497.5C964.43 491.73 962.79 482.97 965.5 477.9C969.41 476.33 974.26 477.03 978.5 477.03C987.5 477.03 996.5 477.03 1005.5 477.03C1010.27 477.03 1016.15 476.1 1020.5 477.96ZM1132.5 478.14C1133.55 481.38 1133.7 484.36 1132.3 487.5C1127.36 489.15 1121.73 488.47 1116.5 488.47C1107.02 488.47 1097.54 488.4 1088.06 488.5C1088.06 496.3 1088.06 504.11 1088.06 511.91C1096.88 511.92 1105.69 511.92 1114.5 511.92C1118.74 511.92 1123.58 511.22 1127.5 512.79C1129.25 516.33 1128.81 519.38 1127.5 523.01C1114.35 523.01 1101.21 523.01 1088.06 523.01C1088.06 531.31 1088.06 539.62 1088.06 547.92C1103.28 547.92 1118.49 547.92 1133.71 547.92C1135.18 551.56 1135.57 554.96 1133.75 558.5C1127.84 560.29 1120.67 559.29 1114.5 559.29C1104.94 559.29 1085.59 560.99 1077.25 558.5C1074.82 553.26 1076.21 545.3 1076.21 539.5C1076.21 525.5 1076.21 511.5 1076.21 497.5C1076.21 491.65 1074.53 482.69 1077.5 477.65C1085.2 475.44 1107.26 477.03 1116.5 477.03C1121.52 477.03 1128.02 475.92 1132.5 478.14ZM1247.69 477.5C1249.57 480.63 1249.58 484.11 1248.18 487.5C1243.31 489.17 1237.68 488.47 1232.5 488.47C1223 488.47 1213.5 488.41 1204.01 488.5C1204.01 496.17 1204.01 503.83 1204.01 511.5C1212.8 512.96 1222.55 511.92 1231.5 511.92C1235.48 511.92 1239.89 511.28 1243.5 512.91C1244.57 516.27 1244.55 518.8 1243.5 522.17C1235.22 525.45 1214.35 521.62 1203.98 523.5C1203.98 531.64 1203.98 539.77 1203.98 547.91C1219.19 547.91 1234.39 547.91 1249.6 547.91C1251.01 551.61 1251.39 554.87 1249.65 558.5C1243.8 560.32 1236.62 559.29 1230.5 559.29C1220.92 559.29 1201.5 560.99 1193.15 558.5C1190.57 553.24 1192.07 541.71 1192.07 535.5C1192.07 523.17 1192.07 510.83 1192.07 498.5C1192.07 492.02 1191.23 484.85 1192.5 478.5C1196.78 475.79 1203.46 477.03 1208.5 477.03C1219.31 477.03 1237.81 475.5 1247.69 477.5ZM748.71 488.4C726.46 491.51 715.84 518.45 729.09 536.36C736.25 546.02 748.75 549.65 760.33 547.67C780.9 544.16 790.37 519.74 780.15 502.34C773.79 491.5 760.81 486.7 748.71 488.4ZM373.48 504.91C285.27 504.91 197.07 504.91 108.86 504.91C114.4 532.1 143.58 528.24 164.5 528.24C216.17 528.24 267.83 528.24 319.5 528.24C340.89 528.24 367.08 531.61 373.48 504.91Z" fill="#020202" fill-rule="evenodd" stroke="#020202" stroke-width="0.25" stroke-linejoin="round"/>
</svg>